<svg width="21" height="23" viewBox="0 0 21 23" fill="none" xmlns="http://www.w3.org/2000/svg">
<path d="M1.00005 11.5663L1 1.97037C1 1.44554 1 1.18396 1.17244 1.05979C1.34488 0.935615 1.59359 1.0184 2.09102 1.18396L18.5376 6.65908C19.5125 6.98358 20 7.14583 20 7.44384C20 7.74185 19.5125 7.9041 18.5376 8.2286L1.00005 11.5663ZM1.00005 11.5663V21.5V11.5663Z" fill="#FF672B"/>
<path d="M1.00005 11.5663L1 1.97037C1 1.44554 1 1.18396 1.17244 1.05979C1.34488 0.935615 1.59359 1.0184 2.09102 1.18396L18.5376 6.65908C19.5125 6.98358 20 7.14583 20 7.44384C20 7.74185 19.5125 7.9041 18.5376 8.2286L1.00005 11.5663ZM1.00005 11.5663V21.5" stroke="#FF672B" stroke-width="2" stroke-linecap="round"/>
</svg>
