<svg width="34" height="34" viewBox="0 0 34 34" fill="none" xmlns="http://www.w3.org/2000/svg">
<circle cx="17" cy="17" r="17" fill="#FFBC2B"/>
<path d="M17.9866 11.3134L17 18L16.0134 11.3134C15.9897 11.1517 15.9975 10.9862 16.0362 10.8282C16.0749 10.6703 16.1435 10.5237 16.2374 10.3988C16.3313 10.2738 16.4481 10.1734 16.5798 10.1045C16.7115 10.0357 16.8549 10 17 10C17.1451 10 17.2885 10.0357 17.4202 10.1045C17.5519 10.1734 17.6687 10.2738 17.7626 10.3988C17.8565 10.5237 17.9251 10.6703 17.9638 10.8282C18.0025 10.9862 18.0103 11.1517 17.9866 11.3134Z" stroke="white" stroke-width="3" stroke-linecap="round" stroke-linejoin="round"/>
<path d="M16.9994 25.1294C17.5514 25.1294 17.9988 24.6527 17.9988 24.0647C17.9988 23.4767 17.5514 23 16.9994 23C16.4474 23 16 23.4767 16 24.0647C16 24.6527 16.4474 25.1294 16.9994 25.1294Z" stroke="white" stroke-width="2"/>
</svg>
