<svg width="19" height="15" viewBox="0 0 19 15" fill="none" xmlns="http://www.w3.org/2000/svg">
<path d="M9.49944 10.8927C10.9985 10.8927 12.2137 9.67746 12.2137 8.1784C12.2137 6.67934 10.9985 5.46411 9.49944 5.46411C8.00038 5.46411 6.78516 6.67934 6.78516 8.1784C6.78516 9.67746 8.00038 10.8927 9.49944 10.8927Z" fill="#FF7300"/>
<path d="M17.9821 2.74993H14.4621C14.3348 2.74993 14.1771 2.66765 14.0541 2.53788L12.8971 0.722698C12.4263 0.0356444 12.2143 0.0356445 11.4509 0.0356445H7.54911C6.78571 0.0356445 6.53125 0.0356445 6.10417 0.723122L4.94594 2.53788C4.85179 2.64051 4.71946 2.74993 4.58036 2.74993V2.07136C4.58036 1.98137 4.54461 1.89508 4.48098 1.83145C4.41735 1.76782 4.33106 1.73207 4.24107 1.73207H2.54464C2.45466 1.73207 2.36836 1.76782 2.30473 1.83145C2.2411 1.89508 2.20536 1.98137 2.20536 2.07136V2.74993H1.01786C0.747905 2.74993 0.489009 2.85717 0.298123 3.04805C0.107238 3.23894 0 3.49784 0 3.76779V13.9464C0 14.2163 0.107238 14.4752 0.298123 14.6661C0.489009 14.857 0.747905 14.9642 1.01786 14.9642H17.9821C18.2521 14.9642 18.511 14.857 18.7019 14.6661C18.8928 14.4752 19 14.2163 19 13.9464V3.76779C19 3.49784 18.8928 3.23894 18.7019 3.04805C18.511 2.85717 18.2521 2.74993 17.9821 2.74993ZM9.69127 12.2457C8.87064 12.2842 8.05755 12.0736 7.35882 11.6415C6.6601 11.2094 6.10844 10.5761 5.77633 9.82465C5.44422 9.07324 5.34719 8.23893 5.498 7.43136C5.64881 6.62378 6.04039 5.88072 6.62131 5.29981C7.20222 4.7189 7.94528 4.32731 8.75286 4.1765C9.56043 4.02569 10.3947 4.12272 11.1461 4.45483C11.8976 4.78695 12.5309 5.3386 12.963 6.03733C13.3951 6.73605 13.6057 7.54914 13.5672 8.36977C13.5186 9.38205 13.0946 10.3399 12.378 11.0565C11.6614 11.7731 10.7035 12.1971 9.69127 12.2457Z" fill="#FF672B"/>
</svg>
