<svg width="100" height="100" viewBox="0 0 100 100" fill="none" xmlns="http://www.w3.org/2000/svg">
<circle cx="50" cy="50" r="48.5" fill="black" fill-opacity="0.4" stroke="black" stroke-width="3"/>
<path d="M94.574 35.1838C94.2545 34.7345 93.6306 34.6312 93.1805 34.953C92.7304 35.2748 92.6245 35.8998 92.9441 36.349L93.7591 35.7664L94.574 35.1838ZM74.5222 43.8077C74.5895 44.8057 74.5898 44.8057 74.5901 44.8056C74.5903 44.8056 74.5907 44.8056 74.5912 44.8056C74.5921 44.8055 74.5933 44.8054 74.595 44.8053C74.5982 44.805 74.6029 44.8047 74.6089 44.8043C74.6211 44.8034 74.6388 44.802 74.662 44.8003C74.7083 44.7967 74.7763 44.7914 74.8644 44.7843C75.0405 44.77 75.297 44.7482 75.6211 44.7184C76.269 44.6587 77.1882 44.5663 78.2766 44.4356C80.4493 44.1746 83.3141 43.7585 86.0475 43.1387C88.7463 42.5266 91.4469 41.6888 93.2022 40.5303C94.0787 39.9518 94.8527 39.2074 95.1741 38.2444C95.5177 37.215 95.2726 36.1659 94.574 35.1838L93.7591 35.7664L92.9441 36.349C93.3721 36.9508 93.3708 37.3409 93.2785 37.6174C93.164 37.9605 92.8225 38.3887 92.1068 38.8611C90.6776 39.8043 88.2873 40.5808 85.6136 41.1871C82.9745 41.7857 80.1851 42.192 78.0467 42.4488C76.9796 42.577 76.079 42.6674 75.4461 42.7257C75.1298 42.7549 74.8805 42.776 74.711 42.7898C74.6263 42.7966 74.5615 42.8017 74.5183 42.805C74.4967 42.8066 74.4804 42.8079 74.4698 42.8086C74.4645 42.809 74.4605 42.8093 74.458 42.8095C74.4568 42.8096 74.4559 42.8097 74.4553 42.8097C74.4551 42.8097 74.4549 42.8097 74.4548 42.8097C74.4548 42.8097 74.4548 42.8097 74.5222 43.8077Z" fill="white"/>
<path d="M19.3882 57.8455C19.3882 57.8455 8.83117 68.9476 8.43357 64.2648" stroke="white" stroke-width="2" stroke-linecap="round"/>
<g clip-path="url(#clip0_2136_34)">
<path d="M62.0811 75.6449L54.1601 69.5111M43.3098 81.7802L35.762 75.7788" stroke="#82AEC0" stroke-miterlimit="10"/>
<path d="M39.7339 78.5075C40.883 77.25 42.4199 77.0913 43.4757 77.7507C45.0919 78.7576 45.268 79.4099 45.268 79.4099C44.6953 80.0373 41.0815 83.8093 41.0815 83.8093C41.0815 83.8093 39.9386 83.0722 39.3135 82.3012C38.5331 81.3361 38.5848 79.7651 39.7339 78.5075Z" fill="#F44336"/>
<path d="M39.2655 79.1297C39.2655 79.1297 39.005 79.9312 39.5275 80.2952C40.3762 80.8868 41.02 80.0719 41.02 80.0719C41.02 80.0719 41.8771 79.0824 43.1718 78.8344C44.992 78.4832 45.4366 79.7703 45.4366 79.7703C45.4366 79.7703 45.2029 78.2825 43.2252 77.6191C42.6684 77.4323 41.3536 77.6451 40.941 77.8045C39.6113 78.3161 39.2655 79.1297 39.2655 79.1297Z" fill="#C62828"/>
<path d="M44.5598 82.8589C45.7092 81.6011 45.8964 79.901 44.9779 79.0616C44.0594 78.2222 42.383 78.5614 41.2336 79.8192C40.0841 81.077 39.8969 82.7771 40.8155 83.6165C41.734 84.4559 43.4104 84.1167 44.5598 82.8589Z" fill="#FF7555"/>
<path d="M42.3541 81.8155C42.6512 81.5355 42.8857 81.3482 43.0637 81.7029C43.1365 81.8713 43.1944 82.1143 43.3761 82.1813C43.9263 82.3895 44.2223 81.6481 44.2311 81.2459C44.2401 80.2927 43.1089 80.2141 42.4747 80.9472C42.111 81.3449 42.0519 81.925 42.1252 82.212C42.1247 82.2151 42.2923 81.8827 42.3541 81.8155Z" fill="#C62828"/>
<path d="M32.232 73.4392C33.3811 72.1817 34.9179 72.023 35.9738 72.6823C37.59 73.6892 37.7661 74.3415 37.7661 74.3415C37.1933 74.969 33.5795 78.7409 33.5795 78.7409C33.5795 78.7409 32.4366 78.0039 31.8115 77.2329C31.0312 76.2677 31.0829 74.6967 32.232 73.4392Z" fill="#F44336"/>
<path d="M37.0598 77.7896C38.2092 76.5318 38.3964 74.8317 37.4779 73.9923C36.5594 73.1529 34.883 73.4921 33.7336 74.7499C32.5841 76.0077 32.3969 77.7078 33.3155 78.5472C34.234 79.3866 35.9104 79.0474 37.0598 77.7896Z" fill="#C62828"/>
<path d="M58.9731 72.5136C60.1248 71.2597 61.6638 71.1078 62.7192 71.7702C64.3313 72.7829 64.5069 73.4384 64.5069 73.4384C63.931 74.0653 60.3067 77.8228 60.3067 77.8228C60.3067 77.8228 59.1643 77.0826 58.5428 76.309C57.7634 75.3376 57.8214 73.7675 58.9731 72.5136Z" fill="#F44336"/>
<path d="M58.5052 73.1345C58.5052 73.1345 58.2415 73.9355 58.764 74.2995C59.6122 74.8942 60.2592 74.0798 60.2592 74.0798C60.2592 74.0798 61.2304 72.9961 62.5348 72.7881C64.2007 72.5215 64.6801 73.7917 64.6801 73.7917C64.6801 73.7917 64.4013 72.5499 62.5793 71.7316C61.4305 71.2146 60.2419 71.6235 59.9004 71.8196C58.6557 72.5239 58.5052 73.1345 58.5052 73.1345Z" fill="#C62828"/>
<path d="M63.7858 76.874C64.9394 75.62 65.1322 73.9206 64.2165 73.0781C63.3008 72.2357 61.6233 72.5693 60.4697 73.8233C59.3161 75.0772 59.1232 76.7767 60.0389 77.6191C60.9546 78.4615 62.6321 78.1279 63.7858 76.874Z" fill="#FF7555"/>
<path d="M61.5792 75.8922C61.7748 75.7275 62.075 75.448 62.2526 75.8059C62.3254 75.9743 62.4201 76.1461 62.6037 76.2006C63.1817 76.3748 63.4525 75.6711 63.4618 75.2657C63.4739 74.3131 62.3432 74.2314 61.7064 74.9608C61.3433 75.3554 61.2834 75.9193 61.3507 76.2246C61.3507 76.2246 61.4532 76.0005 61.5792 75.8922Z" fill="#C62828"/>
<path d="M67.6681 65.2776C67.0692 61.9162 65.1409 61.2029 64.4032 60.8018C64.4032 60.8018 65.6158 62.2161 66.0285 63.7673C66.5588 65.7726 66.1422 68.1159 64.1515 69.1033L38.8348 76.429C33.1276 76.9121 28.1776 70.4832 28.1776 70.4832C27.7878 71.7192 26.9644 74.0017 31.3758 76.4828C35.34 78.711 39.5743 79.0182 41.493 78.407L64.4166 71.573C66.7127 70.7008 68.1588 68.023 67.6681 65.2776Z" fill="#DDB98C"/>
<path d="M67.0484 64.0815C66.4495 60.7201 62.8031 60.0153 60.635 60.2157C58.834 60.3841 56.6235 61.6893 54.9923 62.6724C54.1148 63.2007 52.8015 63.5675 52.8015 63.5675L33.7847 69.2478C33.7847 69.2478 33.2381 69.3829 32.3719 69.2691C31.487 69.1523 28.9762 68.6197 28.3266 70.0615C27.7449 71.357 28.0343 73.2443 31.8978 75.4407C35.8524 77.6898 38.9547 77.8221 40.876 77.2146L63.7996 70.3805C66.0925 69.5079 67.5387 66.8301 67.0484 64.0815Z" fill="#424242"/>
<path d="M39.3675 74.2059C39.4601 73.8689 39.1689 73.4951 38.7173 73.3711C38.2657 73.2472 37.8245 73.4199 37.732 73.7569C37.6395 74.094 37.9306 74.4677 38.3822 74.5917C38.8339 74.7157 39.275 74.543 39.3675 74.2059Z" fill="#757575"/>
<path d="M36.7406 72.0194C36.8331 71.6824 36.542 71.3086 36.0904 71.1846C35.6387 71.0606 35.1976 71.2333 35.105 71.5704C35.0125 71.9074 35.3036 72.2812 35.7553 72.4052C36.2069 72.5292 36.648 72.3564 36.7406 72.0194Z" fill="#757575"/>
<path d="M42.5492 73.2792C42.6417 72.9421 42.3506 72.5684 41.8989 72.4444C41.4473 72.3204 41.0062 72.4931 40.9136 72.8302C40.8211 73.1672 41.1122 73.5409 41.5639 73.6649C42.0155 73.7889 42.4566 73.6162 42.5492 73.2792Z" fill="#757575"/>
<path d="M39.9242 71.0956C40.0167 70.7585 39.7256 70.3848 39.2739 70.2608C38.8223 70.1368 38.3812 70.3095 38.2886 70.6466C38.1961 70.9836 38.4872 71.3574 38.9389 71.4813C39.3905 71.6053 39.8316 71.4326 39.9242 71.0956Z" fill="#757575"/>
<path d="M56.682 68.8876C56.7745 68.5505 56.4834 68.1768 56.0318 68.0528C55.5801 67.9288 55.139 68.1015 55.0464 68.4386C54.9539 68.7756 55.245 69.1493 55.6967 69.2733C56.1483 69.3973 56.5895 69.2246 56.682 68.8876Z" fill="#757575"/>
<path d="M54.055 66.704C54.1476 66.3669 53.8564 65.9932 53.4048 65.8692C52.9532 65.7452 52.512 65.9179 52.4195 66.255C52.327 66.592 52.6181 66.9657 53.0697 67.0897C53.5214 67.2137 53.9625 67.041 54.055 66.704Z" fill="#757575"/>
<path d="M59.9085 67.996C60.0011 67.6589 59.71 67.2852 59.2583 67.1612C58.8067 67.0372 58.3655 67.2099 58.273 67.547C58.1805 67.884 58.4716 68.2577 58.9232 68.3817C59.3749 68.5057 59.816 68.333 59.9085 67.996Z" fill="#757575"/>
<path d="M57.2835 65.8114C57.3761 65.4743 57.085 65.1006 56.6333 64.9766C56.1817 64.8526 55.7405 65.0253 55.648 65.3624C55.5555 65.6994 55.8466 66.0732 56.2982 66.1972C56.7499 66.3212 57.191 66.1484 57.2835 65.8114Z" fill="#757575"/>
</g>
<path d="M41.0655 71.8842C40.5224 71.9818 40.1616 72.5018 40.2596 73.0458C40.3576 73.5898 40.8774 73.9517 41.4205 73.8542L41.243 72.8692L41.0655 71.8842ZM40.7174 61.9994C39.7929 61.6186 39.7929 61.6187 39.7928 61.6188C39.7928 61.6188 39.7928 61.6189 39.7927 61.6191C39.7926 61.6193 39.7925 61.6196 39.7924 61.6199C39.7921 61.6205 39.7917 61.6214 39.7913 61.6225C39.7904 61.6248 39.7891 61.6278 39.7875 61.6318C39.7843 61.6397 39.7797 61.6511 39.7738 61.6658C39.762 61.6951 39.7449 61.7376 39.7234 61.792C39.6804 61.9007 39.6194 62.057 39.5462 62.2505C39.4 62.6369 39.2041 63.1742 39.0056 63.7778C38.6208 64.9477 38.1817 66.4953 38.1421 67.6636L39.1408 67.6986L40.1395 67.7337C40.1684 66.8827 40.5175 65.5807 40.904 64.4058C41.0911 63.837 41.2765 63.3281 41.4152 62.9614C41.4845 62.7783 41.5419 62.6314 41.5816 62.531C41.6015 62.4808 41.6169 62.4422 41.6272 62.4167C41.6324 62.4039 41.6362 62.3943 41.6387 62.3882C41.64 62.3851 41.6409 62.3829 41.6414 62.3816C41.6417 62.3809 41.6419 62.3805 41.642 62.3802C41.642 62.3801 41.642 62.3801 41.642 62.3801C41.642 62.3801 41.642 62.3801 41.642 62.3801C41.642 62.3801 41.642 62.3802 40.7174 61.9994ZM39.1408 67.6986L38.1421 67.6636C38.1117 68.5594 38.6397 69.3538 39.0771 69.9051C39.5362 70.4837 40.1457 71.0856 40.5526 71.5225C40.773 71.7592 40.9418 71.9537 41.0589 72.116C41.1889 72.2963 41.1867 72.3451 41.1777 72.2945C41.1531 72.1566 41.2043 71.9476 41.346 71.8233C41.4072 71.7696 41.3792 71.8279 41.0655 71.8842L41.243 72.8692L41.4205 73.8542C41.8514 73.7768 42.314 73.6364 42.664 73.3292C43.0944 72.9516 43.2325 72.4346 43.1451 71.9447C43.0733 71.5421 42.8585 71.1947 42.6784 70.9451C42.4854 70.6776 42.2465 70.4086 42.0136 70.1585C41.5142 69.6221 41.0354 69.1578 40.6414 68.6612C40.2257 68.1373 40.1357 67.8474 40.1395 67.7337L39.1408 67.6986Z" fill="white"/>
<path d="M57.7839 67.2022C58.0969 66.7442 57.9859 66.1169 57.5359 65.8011C57.0858 65.4853 56.4672 65.6006 56.1542 66.0586L56.969 66.6304L57.7839 67.2022ZM51.3633 55.5762C50.3877 55.7659 50.3877 55.7661 50.3877 55.7663C50.3878 55.7665 50.3878 55.7668 50.3879 55.7671C50.388 55.7677 50.3882 55.7685 50.3884 55.7696C50.3888 55.7717 50.3893 55.7748 50.3901 55.7787C50.3915 55.7866 50.3937 55.798 50.3965 55.8129C50.4021 55.8428 50.4104 55.8864 50.4213 55.9428C50.443 56.0555 50.4751 56.2192 50.5168 56.4256C50.6001 56.8382 50.7222 57.4219 50.8775 58.109C51.1872 59.4795 51.6327 61.2781 52.1711 62.9565C52.6961 64.593 53.3531 66.2603 54.1307 67.2595C54.505 67.7404 55.0764 68.2884 55.8573 68.3381C56.7145 68.3926 57.3516 67.8346 57.7839 67.2022L56.969 66.6304L56.1542 66.0586C55.8857 66.4513 55.8221 66.3168 55.9896 66.3274C56.0807 66.3332 55.9733 66.3701 55.6906 66.0069C55.1544 65.3178 54.5851 63.9653 54.0591 62.3257C53.5464 60.7278 53.116 58.994 52.8126 57.6511C52.6613 56.9816 52.5425 56.4133 52.4616 56.0131C52.4212 55.8131 52.3903 55.6553 52.3696 55.548C52.3593 55.4944 52.3515 55.4534 52.3463 55.4261C52.3438 55.4125 52.3418 55.4022 52.3406 55.3956C52.34 55.3923 52.3395 55.3898 52.3392 55.3883C52.3391 55.3875 52.339 55.387 52.3389 55.3867C52.3389 55.3865 52.3389 55.3865 52.3389 55.3864C52.3389 55.3864 52.3389 55.3864 51.3633 55.5762Z" fill="white"/>
<ellipse cx="11.9734" cy="19.5785" rx="11.9734" ry="19.5785" transform="matrix(0.970439 0.241346 -0.233452 0.972368 21.8789 23.7393)" fill="#FFC800"/>
<ellipse cx="11.9734" cy="19.5785" rx="11.9734" ry="19.5785" transform="matrix(0.970439 0.241346 -0.233452 0.972368 40.6113 22.4639)" fill="#FFC800"/>
<ellipse cx="11.9734" cy="19.5785" rx="11.9734" ry="19.5785" transform="matrix(0.970439 0.241346 -0.233452 0.972368 60.916 19.9482)" fill="#FFC800"/>
<line y1="-0.5" x2="16.9353" y2="-0.5" transform="matrix(0.988815 -0.149149 0.144094 0.989564 2 51.4824)" stroke="black"/>
<line y1="-0.5" x2="22.1748" y2="-0.5" transform="matrix(0.988815 -0.149149 0.144094 0.989564 76.0723 48.708)" stroke="black"/>
<line y1="-0.5" x2="14.4537" y2="-0.5" transform="matrix(0.988815 -0.149149 0.144094 0.989564 74.7246 31.8145)" stroke="black"/>
<line y1="-0.5" x2="6.76062" y2="-0.5" transform="matrix(0.988815 -0.149149 0.144094 0.989564 77.3398 40.1299)" stroke="white"/>
<path d="M18.5889 38.6611C19.0526 38.6611 19.4434 39.0464 19.4434 39.54C19.4433 40.0336 19.0526 40.4189 18.5889 40.4189C18.1252 40.4188 17.7345 40.0336 17.7344 39.54C17.7344 39.0464 18.1252 38.6612 18.5889 38.6611Z" stroke="black"/>
<path d="M83.6162 51.415C84.08 51.415 84.4707 51.8003 84.4707 52.2939C84.4706 52.7875 84.0799 53.1729 83.6162 53.1729C83.1526 53.1727 82.7618 52.7875 82.7617 52.2939C82.7617 51.8003 83.1525 51.4151 83.6162 51.415Z" stroke="black"/>
<path d="M26.252 59.9346C27.1832 59.9346 27.953 60.7053 27.9531 61.6748C27.9531 62.6444 27.1833 63.416 26.252 63.416C25.3207 63.4159 24.5508 62.6443 24.5508 61.6748C24.5509 60.7054 25.3208 59.9347 26.252 59.9346Z" stroke="white"/>
<line y1="-0.5" x2="20.0949" y2="-0.5" transform="matrix(0.988815 -0.149149 0.144094 0.989564 57.2988 29.1416)" stroke="white"/>
<path d="M36.8603 35.837C36.8603 36.3037 36.8203 36.6504 36.7403 36.877C36.6736 37.1037 36.567 37.257 36.4203 37.337C36.2736 37.417 36.0536 37.457 35.7603 37.457C35.3203 37.457 34.947 37.5837 34.6403 37.837C34.347 38.077 34.2003 38.397 34.2003 38.797C34.2003 39.2237 34.3536 39.5637 34.6603 39.817C34.9803 40.0704 35.4603 40.197 36.1003 40.197C36.9936 40.197 37.587 40.0704 37.8803 39.817C38.1736 39.5637 38.3203 39.2037 38.3203 38.737C38.3203 38.4437 38.2536 38.197 38.1203 37.997C37.987 37.7837 37.8003 37.637 37.5603 37.557C37.387 37.5037 37.267 37.397 37.2003 37.237C37.1336 37.077 37.1003 36.857 37.1003 36.577L37.1403 35.837C37.1936 35.3837 37.2736 35.0837 37.3803 34.937C37.5003 34.777 37.727 34.697 38.0603 34.697C38.6203 34.697 39.1803 34.8504 39.7403 35.157C40.3136 35.4504 40.787 35.9037 41.1603 36.517C41.5336 37.117 41.7203 37.8437 41.7203 38.697C41.7203 41.057 40.5536 42.4904 38.2203 42.997V44.357L39.3403 44.377C40.1403 44.377 40.7603 44.3504 41.2003 44.297C41.2803 44.2837 41.4003 44.277 41.5603 44.277C41.947 44.277 42.2403 44.4037 42.4403 44.657C42.6403 44.9104 42.7403 45.3904 42.7403 46.097C42.7403 46.417 42.687 46.6704 42.5803 46.857C42.487 47.0304 42.3203 47.1437 42.0803 47.197C41.5603 47.317 40.7203 47.377 39.5603 47.377C39.2003 47.377 38.6336 47.3637 37.8603 47.337L36.9003 47.317C36.6203 47.3037 36.207 47.297 35.6603 47.297C34.0736 47.297 32.7603 47.3904 31.7203 47.577C31.587 47.6037 31.4803 47.617 31.4003 47.617C31.0936 47.617 30.827 47.5104 30.6003 47.297C30.387 47.0704 30.247 46.717 30.1803 46.237C30.167 46.1437 30.1603 46.0037 30.1603 45.817C30.1603 45.137 30.4403 44.737 31.0003 44.617C32.0403 44.4304 33.2736 44.3237 34.7003 44.297V43.097C33.367 42.9104 32.3803 42.4304 31.7403 41.657C31.1136 40.8837 30.8003 39.897 30.8003 38.697C30.8003 37.3237 31.227 36.2704 32.0803 35.537C32.9336 34.7904 34.167 34.4437 35.7803 34.497C36.1803 34.5104 36.4603 34.617 36.6203 34.817C36.7803 35.0037 36.8603 35.3437 36.8603 35.837ZM47.7003 39.257C48.1403 39.257 48.4336 39.397 48.5803 39.677C48.7403 39.9437 48.8203 40.3637 48.8203 40.937C48.8203 41.5104 48.7403 41.9237 48.5803 42.177C48.4336 42.4304 48.1403 42.557 47.7003 42.557H46.6603C46.6603 44.3304 46.687 45.897 46.7403 47.257C46.767 47.8437 46.6403 48.2237 46.3603 48.397C46.0803 48.5704 45.6336 48.657 45.0203 48.657C44.5803 48.657 44.247 48.637 44.0203 48.597C43.7936 48.5437 43.607 48.4237 43.4603 48.237C43.3136 48.0504 43.2336 47.757 43.2203 47.357C43.167 45.757 43.1403 43.8504 43.1403 41.637C43.1403 39.437 43.167 37.537 43.2203 35.937C43.247 35.3237 43.387 34.9237 43.6403 34.737C43.907 34.537 44.3536 34.437 44.9803 34.437C45.5936 34.437 46.047 34.5304 46.3403 34.717C46.6336 34.9037 46.767 35.2904 46.7403 35.877C46.7136 36.437 46.687 37.5637 46.6603 39.257H47.7003ZM36.2203 50.437C36.2203 50.837 36.507 51.0704 37.0803 51.137C37.747 51.217 38.5336 51.257 39.4403 51.257C40.427 51.257 41.4403 51.217 42.4803 51.137C43.5203 51.0437 44.4336 50.9237 45.2203 50.777C45.447 50.737 45.6336 50.717 45.7803 50.717C46.1536 50.717 46.4203 50.8104 46.5803 50.997C46.7403 51.1837 46.8403 51.4637 46.8803 51.837C46.9203 52.1437 46.9403 52.397 46.9403 52.597C46.9403 52.9437 46.8603 53.2037 46.7003 53.377C46.5536 53.5637 46.2736 53.697 45.8603 53.777C44.9936 53.937 43.9936 54.057 42.8603 54.137C41.727 54.2304 40.587 54.277 39.4403 54.277C37.8136 54.277 36.4803 54.2037 35.4403 54.057C34.4803 53.9237 33.787 53.597 33.3603 53.077C32.9336 52.557 32.6936 51.8104 32.6403 50.837L32.6003 48.997C32.587 48.637 32.7203 48.3904 33.0003 48.257C33.2936 48.1237 33.767 48.057 34.4203 48.057C35.0603 48.057 35.5136 48.1104 35.7803 48.217C36.047 48.3237 36.187 48.5504 36.2003 48.897L36.2203 50.437ZM53.3195 39.577C54.6662 39.7504 56.0929 39.837 57.5995 39.837C58.9462 39.837 60.2262 39.7704 61.4395 39.637C61.4929 39.3437 61.5195 39.1704 61.5195 39.117C61.5195 38.9037 61.4462 38.757 61.2995 38.677C61.1662 38.5837 60.9329 38.537 60.5995 38.537L60.0395 38.557C59.8262 38.5837 59.6529 38.597 59.5195 38.597C58.9862 38.6237 58.4129 38.637 57.7995 38.637C56.7729 38.637 55.7395 38.6104 54.6995 38.557C53.6595 38.5037 52.9195 38.4304 52.4795 38.337C52.0662 38.2437 51.7795 38.1104 51.6195 37.937C51.4595 37.7504 51.3795 37.4837 51.3795 37.137L51.4195 36.617C51.4862 36.097 51.6129 35.737 51.7995 35.537C51.9995 35.3237 52.2995 35.217 52.6995 35.217C52.8729 35.217 53.0062 35.2237 53.0995 35.237C54.5129 35.3704 56.0395 35.437 57.6795 35.437C58.9862 35.437 60.1262 35.4037 61.0995 35.337C61.5262 35.297 61.9195 35.277 62.2795 35.277C63.2662 35.277 63.9929 35.497 64.4595 35.937C64.9262 36.377 65.1595 37.197 65.1595 38.397C65.1595 38.7437 65.1395 39.1504 65.0995 39.617C65.2462 39.8037 65.3595 40.097 65.4395 40.497C65.4795 40.697 65.4995 40.877 65.4995 41.037C65.4995 41.3837 65.3995 41.6437 65.1995 41.817C64.9995 41.977 64.6395 42.1104 64.1195 42.217C62.1995 42.5504 60.0929 42.717 57.7995 42.717C56.7595 42.717 55.8329 42.6904 55.0195 42.637C54.9795 42.797 54.9595 42.9437 54.9595 43.077C54.9595 43.3037 55.0462 43.4704 55.2195 43.577C55.3929 43.6837 55.6795 43.757 56.0795 43.797C56.4929 43.837 57.1395 43.8704 58.0195 43.897C58.9395 43.9237 60.0929 43.8704 61.4795 43.737C62.8662 43.6037 63.8395 43.437 64.3995 43.237C64.6262 43.157 64.8262 43.117 64.9995 43.117C65.2795 43.117 65.5129 43.2104 65.6995 43.397C65.8995 43.5837 66.0662 43.857 66.1995 44.217C66.3329 44.577 66.3995 44.877 66.3995 45.117C66.3995 45.6504 66.1129 46.017 65.5395 46.217C64.7662 46.4837 63.6929 46.697 62.3195 46.857C60.9595 47.0037 59.4862 47.077 57.8995 47.077C56.9795 47.077 56.2929 47.0637 55.8395 47.037C54.6262 46.9837 53.6462 46.777 52.8995 46.417C52.1529 46.057 51.6729 45.6237 51.4595 45.117C51.2995 44.6904 51.2195 44.2304 51.2195 43.737C51.2195 43.3237 51.2795 42.7904 51.3995 42.137C51.2395 42.0437 51.1195 41.917 51.0395 41.757C50.9729 41.597 50.9395 41.3904 50.9395 41.137C50.9395 40.897 50.9529 40.7037 50.9795 40.557C51.0462 40.1437 51.1529 39.8637 51.2995 39.717C51.4595 39.557 51.7262 39.477 52.0995 39.477C52.3395 39.477 52.7462 39.5104 53.3195 39.577ZM53.7195 48.337C53.7195 47.9104 53.8529 47.6437 54.1195 47.537C54.3995 47.417 54.8662 47.357 55.5195 47.357C55.9595 47.357 56.2929 47.377 56.5195 47.417C56.7462 47.4437 56.9195 47.5304 57.0395 47.677C57.1729 47.8104 57.2395 48.0304 57.2395 48.337V49.217L60.0395 49.437V48.297C60.0395 47.8704 60.1662 47.6037 60.4195 47.497C60.6729 47.377 61.1195 47.317 61.7595 47.317C62.4129 47.317 62.8729 47.377 63.1395 47.497C63.4195 47.6037 63.5595 47.8704 63.5595 48.297V49.597C64.5462 49.597 65.4062 49.537 66.1395 49.417C66.3262 49.3904 66.4529 49.377 66.5195 49.377C66.9595 49.377 67.2729 49.537 67.4595 49.857C67.6462 50.1637 67.7395 50.657 67.7395 51.337C67.7395 51.737 67.6729 52.0504 67.5395 52.277C67.4062 52.5037 67.1529 52.657 66.7795 52.737C65.8462 52.9237 64.8395 53.017 63.7595 53.017C62.4662 53.017 60.7395 52.9037 58.5795 52.677C57.4462 52.557 56.3662 52.497 55.3395 52.497C54.0062 52.497 52.6395 52.6037 51.2395 52.817L50.8195 52.857C49.9395 52.857 49.4995 52.3304 49.4995 51.277C49.4995 50.7304 49.5729 50.317 49.7195 50.037C49.8662 49.7437 50.1995 49.5504 50.7195 49.457C51.5595 49.297 52.5595 49.197 53.7195 49.157V48.337Z" fill="#0135AC"/>
<defs>
<clipPath id="clip0_2136_34">
<rect width="40.5027" height="40.5027" fill="white" transform="translate(30.8652 46.7119) rotate(8.93741)"/>
</clipPath>
</defs>
</svg>
