<svg width="102" height="100" viewBox="0 0 102 100" fill="none" xmlns="http://www.w3.org/2000/svg">
<circle cx="51" cy="50" r="50" fill="black" fill-opacity="0.4"/>
<path d="M97.4605 34.7778C97.1367 34.3305 96.5115 34.2304 96.0641 34.5542C95.6167 34.8781 95.5166 35.5033 95.8405 35.9506L96.6505 35.3642L97.4605 34.7778ZM76.5977 43.6002C76.6681 44.5977 76.6684 44.5977 76.6687 44.5977C76.6689 44.5977 76.6693 44.5977 76.6698 44.5976C76.6707 44.5976 76.672 44.5975 76.6737 44.5973C76.6771 44.5971 76.6819 44.5968 76.6882 44.5963C76.7009 44.5954 76.7193 44.594 76.7434 44.5922C76.7916 44.5886 76.8624 44.5832 76.9541 44.5758C77.1375 44.5612 77.4046 44.539 77.7422 44.5084C78.4172 44.4473 79.3749 44.3528 80.5088 44.219C82.7726 43.9518 85.7567 43.5259 88.6032 42.8917C91.4155 42.265 94.222 41.4087 96.0432 40.2277C96.9513 39.6388 97.7517 38.8823 98.0845 37.9028C98.4412 36.8526 98.1865 35.7806 97.4605 34.7778L96.6505 35.3642L95.8405 35.9506C96.289 36.5701 96.2883 36.9722 96.1907 37.2595C96.0691 37.6176 95.7066 38.0622 94.955 38.5496C93.4567 39.5212 90.9564 40.3183 88.1683 40.9395C85.4144 41.5532 82.5045 41.9696 80.2744 42.2328C79.1614 42.3641 78.222 42.4568 77.5619 42.5166C77.2319 42.5464 76.9718 42.5681 76.795 42.5822C76.7065 42.5893 76.6389 42.5944 76.5938 42.5978C76.5712 42.5995 76.5542 42.6008 76.5431 42.6016C76.5375 42.602 76.5334 42.6023 76.5308 42.6025C76.5294 42.6026 76.5285 42.6026 76.5279 42.6027C76.5276 42.6027 76.5275 42.6027 76.5273 42.6027C76.5273 42.6027 76.5273 42.6027 76.5977 43.6002Z" fill="white"/>
<path d="M19.1262 57.9777C19.1262 57.9777 8.12139 69.3485 7.70693 64.5524" stroke="white" stroke-width="2" stroke-linecap="round"/>
<g clip-path="url(#clip0_2114_38)">
<path d="M63.4978 76.0521L55.3133 69.7143M44.102 82.3915L36.3031 76.1905" stroke="#82AEC0" stroke-miterlimit="10"/>
<path d="M40.4065 79.0102C41.5938 77.7108 43.1818 77.5468 44.2728 78.2281C45.9427 79.2685 46.1247 79.9425 46.1247 79.9425C45.5329 80.5909 41.7989 84.4883 41.7989 84.4883C41.7989 84.4883 40.6179 83.7267 39.972 82.9301C39.1657 81.9328 39.2191 80.3095 40.4065 79.0102Z" fill="#F44336"/>
<path d="M39.921 79.6517C39.921 79.6517 39.6518 80.4798 40.1917 80.856C41.0686 81.4672 41.7339 80.6252 41.7339 80.6252C41.7339 80.6252 42.6195 79.6028 43.9572 79.3465C45.838 78.9836 46.2974 80.3136 46.2974 80.3136C46.2974 80.3136 46.0559 78.7763 44.0124 78.0908C43.4371 77.8978 42.0786 78.1177 41.6522 78.2823C40.2783 78.8109 39.921 79.6517 39.921 79.6517Z" fill="#C62828"/>
<path d="M45.3921 83.5053C46.5797 82.2057 46.7732 80.449 45.8241 79.5817C44.875 78.7144 43.1428 79.0649 41.9552 80.3646C40.7675 81.6642 40.5741 83.4209 41.5231 84.2882C42.4722 85.1555 44.2044 84.805 45.3921 83.5053Z" fill="#FF7555"/>
<path d="M43.1122 82.4276C43.4192 82.1383 43.6615 81.9447 43.8454 82.3112C43.9207 82.4852 43.9805 82.7362 44.1682 82.8055C44.7367 83.0207 45.0425 82.2546 45.0516 81.839C45.0609 80.8541 43.8921 80.7729 43.2368 81.5304C42.861 81.9413 42.7999 82.5406 42.8757 82.8372C42.8752 82.8404 43.0484 82.497 43.1122 82.4276Z" fill="#C62828"/>
<path d="M32.6545 73.7729C33.8419 72.4735 35.4298 72.3095 36.5208 72.9908C38.1908 74.0312 38.3727 74.7052 38.3727 74.7052C37.7809 75.3536 34.0469 79.251 34.0469 79.251C34.0469 79.251 32.866 78.4894 32.2201 77.6928C31.4138 76.6955 31.4672 75.0722 32.6545 73.7729Z" fill="#F44336"/>
<path d="M37.6421 78.2671C38.8297 76.9674 39.0232 75.2108 38.0741 74.3435C37.125 73.4762 35.3928 73.8266 34.2052 75.1263C33.0175 76.4259 32.8241 78.1826 33.7731 79.0499C34.7222 79.9172 36.4544 79.5667 37.6421 78.2671Z" fill="#C62828"/>
<path d="M60.2865 72.8168C61.4766 71.5211 63.0668 71.3641 64.1572 72.0486C65.823 73.095 66.0044 73.7722 66.0044 73.7722C65.4094 74.42 61.6645 78.3026 61.6645 78.3026C61.6645 78.3026 60.484 77.5377 59.8419 76.7384C59.0366 75.7346 59.0965 74.1124 60.2865 72.8168Z" fill="#F44336"/>
<path d="M59.8014 73.4581C59.8014 73.4581 59.5289 74.2857 60.0688 74.6619C60.9452 75.2763 61.6137 74.4349 61.6137 74.4349C61.6137 74.4349 62.6173 73.3151 63.965 73.1001C65.6864 72.8247 66.1817 74.1371 66.1817 74.1371C66.1817 74.1371 65.8936 72.854 64.011 72.0085C62.824 71.4743 61.5959 71.8968 61.243 72.0994C59.9569 72.8272 59.8014 73.4581 59.8014 73.4581Z" fill="#C62828"/>
<path d="M65.2566 77.3228C66.4486 76.0271 66.6479 74.2711 65.7017 73.4006C64.7555 72.5302 63.0222 72.8749 61.8302 74.1706C60.6382 75.4662 60.4389 77.2223 61.3851 78.0927C62.3313 78.9632 64.0646 78.6185 65.2566 77.3228Z" fill="#FF7555"/>
<path d="M62.9778 76.3079C63.1799 76.1378 63.4901 75.849 63.6736 76.2188C63.7488 76.3928 63.8467 76.5703 64.0364 76.6267C64.6336 76.8066 64.9135 76.0795 64.9231 75.6607C64.9356 74.6763 63.7673 74.5919 63.1092 75.3456C62.734 75.7533 62.6722 76.336 62.7417 76.6514C62.7417 76.6514 62.8476 76.4199 62.9778 76.3079Z" fill="#C62828"/>
<path d="M69.2703 65.3396C68.6515 61.8664 66.6591 61.1294 65.8968 60.7149C65.8968 60.7149 67.1498 62.1763 67.5762 63.7791C68.1241 65.8511 67.6937 68.2723 65.6368 69.2926L39.4777 76.8621C33.5807 77.3612 28.4659 70.7184 28.4659 70.7184C28.0632 71.9955 27.2124 74.3539 31.7705 76.9176C35.8666 79.22 40.2419 79.5373 42.2244 78.9059L65.9106 71.8444C68.2831 70.9433 69.7774 68.1764 69.2703 65.3396Z" fill="#DDB98C"/>
<path d="M68.6296 64.1031C68.0107 60.6299 64.243 59.9016 62.0028 60.1087C60.1418 60.2827 57.8579 61.6313 56.1723 62.6471C55.2657 63.193 53.9086 63.572 53.9086 63.572L34.2591 69.4413C34.2591 69.4413 33.6944 69.5808 32.7994 69.4632C31.885 69.3426 29.2907 68.7923 28.6195 70.282C28.0184 71.6206 28.3174 73.5707 32.3095 75.8402C36.3956 78.1641 39.6011 78.3009 41.5864 77.6731L65.2726 70.6117C67.6419 69.71 69.1361 66.9431 68.6296 64.1031Z" fill="#424242"/>
<path d="M40.0271 74.5658C40.1227 74.2175 39.8219 73.8314 39.3553 73.7032C38.8886 73.5751 38.4328 73.7536 38.3372 74.1018C38.2416 74.4501 38.5424 74.8363 39.009 74.9644C39.4757 75.0925 39.9315 74.9141 40.0271 74.5658Z" fill="#757575"/>
<path d="M37.3142 72.305C37.4098 71.9568 37.109 71.5706 36.6424 71.4425C36.1757 71.3144 35.7199 71.4928 35.6243 71.8411C35.5287 72.1894 35.8295 72.5755 36.2961 72.7037C36.7628 72.8318 37.2186 72.6533 37.3142 72.305Z" fill="#757575"/>
<path d="M43.3162 73.6078C43.4118 73.2595 43.111 72.8733 42.6443 72.7452C42.1777 72.6171 41.7218 72.7956 41.6262 73.1438C41.5306 73.4921 41.8314 73.8783 42.2981 74.0064C42.7648 74.1345 43.2206 73.956 43.3162 73.6078Z" fill="#757575"/>
<path d="M40.6013 71.3509C40.697 71.0027 40.3962 70.6165 39.9295 70.4884C39.4628 70.3603 39.007 70.5387 38.9114 70.887C38.8158 71.2353 39.1166 71.6214 39.5833 71.7496C40.0499 71.8777 40.5057 71.6992 40.6013 71.3509Z" fill="#757575"/>
<path d="M57.9178 69.0697C58.0134 68.7214 57.7126 68.3353 57.2459 68.2071C56.7792 68.079 56.3234 68.2575 56.2278 68.6057C56.1322 68.954 56.433 69.3402 56.8997 69.4683C57.3663 69.5964 57.8221 69.418 57.9178 69.0697Z" fill="#757575"/>
<path d="M55.2049 66.8138C55.3005 66.4656 54.9997 66.0794 54.533 65.9513C54.0663 65.8232 53.6105 66.0016 53.5149 66.3499C53.4193 66.6981 53.7201 67.0843 54.1868 67.2124C54.6534 67.3406 55.1093 67.1621 55.2049 66.8138Z" fill="#757575"/>
<path d="M61.2517 68.1478C61.3473 67.7996 61.0465 67.4134 60.5799 67.2853C60.1132 67.1572 59.6574 67.3356 59.5618 67.6839C59.4662 68.0321 59.767 68.4183 60.2336 68.5464C60.7003 68.6745 61.1561 68.4961 61.2517 68.1478Z" fill="#757575"/>
<path d="M58.5388 65.891C58.6345 65.5427 58.3337 65.1565 57.867 65.0284C57.4003 64.9003 56.9445 65.0788 56.8489 65.427C56.7533 65.7753 57.0541 66.1615 57.5208 66.2896C57.9874 66.4177 58.4432 66.2392 58.5388 65.891Z" fill="#757575"/>
</g>
<path d="M41.7321 72.3814C41.1882 72.4773 40.8251 72.9961 40.921 73.5399C41.017 74.0838 41.5357 74.4469 42.0796 74.351L41.9058 73.3662L41.7321 72.3814ZM41.358 62.2332C40.435 61.8482 40.435 61.8483 40.435 61.8484C40.4349 61.8485 40.4349 61.8486 40.4348 61.8487C40.4347 61.849 40.4346 61.8492 40.4345 61.8496C40.4342 61.8503 40.4338 61.8512 40.4334 61.8523C40.4324 61.8545 40.4311 61.8577 40.4294 61.8618C40.4261 61.8699 40.4213 61.8815 40.4151 61.8965C40.4028 61.9265 40.3851 61.97 40.3627 62.0257C40.3179 62.1369 40.2543 62.297 40.178 62.4951C40.0257 62.8907 39.8216 63.4409 39.6147 64.0588C39.2137 65.2569 38.7563 66.8408 38.7151 68.0359L39.7145 68.0704L40.7139 68.1049C40.744 67.2319 41.1084 65.8972 41.5113 64.6937C41.7064 64.1109 41.8997 63.5895 42.0444 63.2138C42.1166 63.0262 42.1765 62.8757 42.2179 62.7728C42.2386 62.7213 42.2547 62.6818 42.2655 62.6556C42.2708 62.6425 42.2749 62.6327 42.2775 62.6264C42.2788 62.6233 42.2797 62.621 42.2803 62.6196C42.2806 62.6189 42.2808 62.6185 42.2809 62.6182C42.2809 62.6181 42.281 62.618 42.281 62.618C42.281 62.618 42.281 62.6181 42.281 62.6181C42.2809 62.6181 42.2809 62.6182 41.358 62.2332ZM39.7145 68.0704L38.7151 68.0359C38.6836 68.9496 39.2313 69.7592 39.6854 70.3216C40.1629 70.9129 40.7962 71.5271 41.2218 71.9763C41.4518 72.2189 41.6288 72.4193 41.752 72.587C41.8887 72.7732 41.8881 72.8259 41.8793 72.7771C41.8717 72.7356 41.8647 72.6459 41.9016 72.5352C41.9396 72.4211 42.0038 72.3461 42.0472 72.3087C42.1027 72.2608 42.0633 72.3229 41.7321 72.3814L41.9058 73.3662L42.0796 74.351C42.5245 74.2724 42.9965 74.1309 43.3531 73.8236C43.5469 73.6564 43.709 73.4377 43.7991 73.1673C43.8881 72.9002 43.8874 72.6415 43.8471 72.4197C43.7727 72.0103 43.5506 71.6572 43.364 71.4032C43.1639 71.1307 42.916 70.8564 42.6735 70.6005C42.1543 70.0527 41.6531 69.5749 41.2414 69.065C40.8062 68.5262 40.7097 68.2252 40.7139 68.1049L39.7145 68.0704Z" fill="white"/>
<path d="M59.1215 67.5472C59.4368 67.0938 59.325 66.4706 58.8716 66.1552C58.4182 65.8398 57.795 65.9517 57.4796 66.405L58.3005 66.9761L59.1215 67.5472ZM52.457 55.6543C51.4743 55.8393 51.4743 55.8395 51.4744 55.8397C51.4744 55.8398 51.4744 55.8401 51.4745 55.8404C51.4746 55.8411 51.4748 55.8419 51.475 55.843C51.4754 55.8452 51.476 55.8483 51.4768 55.8523C51.4783 55.8604 51.4805 55.8721 51.4835 55.8874C51.4893 55.9179 51.498 55.9625 51.5093 56.0202C51.5319 56.1356 51.5653 56.3032 51.6088 56.5145C51.6957 56.9369 51.8228 57.5345 51.9846 58.2381C52.3074 59.6414 52.7716 61.4827 53.3325 63.2006C53.8798 64.8768 54.5636 66.5805 55.371 67.5999C55.7606 68.0917 56.3494 68.6436 57.1482 68.6935C58.0215 68.7481 58.6739 68.1905 59.1215 67.5472L58.3005 66.9761L57.4796 66.405C57.1967 66.8117 57.1187 66.6878 57.273 66.6974C57.3528 66.7024 57.234 66.7308 56.9388 66.3581C56.3766 65.6483 55.7821 64.2591 55.2337 62.5798C54.699 60.9423 54.2502 59.1656 53.9338 57.7898C53.776 57.1039 53.6521 56.5216 53.5678 56.1116C53.5256 55.9067 53.4934 55.7449 53.4718 55.635C53.461 55.58 53.4529 55.538 53.4475 55.51C53.4449 55.496 53.4429 55.4856 53.4416 55.4787C53.4409 55.4753 53.4404 55.4728 53.4401 55.4712C53.44 55.4705 53.4399 55.4699 53.4398 55.4696C53.4398 55.4694 53.4398 55.4693 53.4398 55.4693C53.4398 55.4693 53.4398 55.4693 52.457 55.6543Z" fill="white"/>
<ellipse cx="29.0704" cy="45.5049" rx="12.4686" ry="20.0721" transform="rotate(13.7314 29.0704 45.5049)" fill="#FFC800"/>
<ellipse cx="48.5958" cy="44.1993" rx="12.4686" ry="20.0721" transform="rotate(13.7314 48.5958 44.1993)" fill="#FFC800"/>
<ellipse cx="69.7618" cy="41.6221" rx="12.4686" ry="20.0721" transform="rotate(13.7314 69.7618 41.6221)" fill="#FFC800"/>
<line x1="0.9267" y1="50.9673" x2="18.3828" y2="48.3803" stroke="black"/>
<line x1="78.1415" y1="48.1255" x2="100.998" y2="44.7381" stroke="black"/>
<line x1="76.7353" y1="30.8228" x2="91.6335" y2="28.6148" stroke="black"/>
<line x1="79.4619" y1="39.3404" x2="86.4304" y2="38.3076" stroke="white"/>
<circle cx="18.293" cy="39.2305" r="0.912138" stroke="black"/>
<circle cx="86.0782" cy="52.293" r="0.912138" stroke="black"/>
<circle cx="26.2811" cy="61.9012" r="1.79472" stroke="white"/>
<line x1="58.5712" y1="28.0855" x2="79.2841" y2="25.0158" stroke="white"/>
<path d="M37.04 35.38C37.04 35.8467 37 36.1933 36.92 36.42C36.8533 36.6467 36.7467 36.8 36.6 36.88C36.4533 36.96 36.2333 37 35.94 37C35.5 37 35.1267 37.1267 34.82 37.38C34.5267 37.62 34.38 37.94 34.38 38.34C34.38 38.7667 34.5333 39.1067 34.84 39.36C35.16 39.6133 35.64 39.74 36.28 39.74C37.1733 39.74 37.7667 39.6133 38.06 39.36C38.3533 39.1067 38.5 38.7467 38.5 38.28C38.5 37.9867 38.4333 37.74 38.3 37.54C38.1667 37.3267 37.98 37.18 37.74 37.1C37.5667 37.0467 37.4467 36.94 37.38 36.78C37.3133 36.62 37.28 36.4 37.28 36.12L37.32 35.38C37.3733 34.9267 37.4533 34.6267 37.56 34.48C37.68 34.32 37.9067 34.24 38.24 34.24C38.8 34.24 39.36 34.3933 39.92 34.7C40.4933 34.9933 40.9667 35.4467 41.34 36.06C41.7133 36.66 41.9 37.3867 41.9 38.24C41.9 40.6 40.7333 42.0333 38.4 42.54V43.9L39.52 43.92C40.32 43.92 40.94 43.8933 41.38 43.84C41.46 43.8267 41.58 43.82 41.74 43.82C42.1267 43.82 42.42 43.9467 42.62 44.2C42.82 44.4533 42.92 44.9333 42.92 45.64C42.92 45.96 42.8667 46.2133 42.76 46.4C42.6667 46.5733 42.5 46.6867 42.26 46.74C41.74 46.86 40.9 46.92 39.74 46.92C39.38 46.92 38.8133 46.9067 38.04 46.88L37.08 46.86C36.8 46.8467 36.3867 46.84 35.84 46.84C34.2533 46.84 32.94 46.9333 31.9 47.12C31.7667 47.1467 31.66 47.16 31.58 47.16C31.2733 47.16 31.0067 47.0533 30.78 46.84C30.5667 46.6133 30.4267 46.26 30.36 45.78C30.3467 45.6867 30.34 45.5467 30.34 45.36C30.34 44.68 30.62 44.28 31.18 44.16C32.22 43.9733 33.4533 43.8667 34.88 43.84V42.64C33.5467 42.4533 32.56 41.9733 31.92 41.2C31.2933 40.4267 30.98 39.44 30.98 38.24C30.98 36.8667 31.4067 35.8133 32.26 35.08C33.1133 34.3333 34.3467 33.9867 35.96 34.04C36.36 34.0533 36.64 34.16 36.8 34.36C36.96 34.5467 37.04 34.8867 37.04 35.38ZM47.88 38.8C48.32 38.8 48.6133 38.94 48.76 39.22C48.92 39.4867 49 39.9067 49 40.48C49 41.0533 48.92 41.4667 48.76 41.72C48.6133 41.9733 48.32 42.1 47.88 42.1H46.84C46.84 43.8733 46.8667 45.44 46.92 46.8C46.9467 47.3867 46.82 47.7667 46.54 47.94C46.26 48.1133 45.8133 48.2 45.2 48.2C44.76 48.2 44.4267 48.18 44.2 48.14C43.9733 48.0867 43.7867 47.9667 43.64 47.78C43.4933 47.5933 43.4133 47.3 43.4 46.9C43.3467 45.3 43.32 43.3933 43.32 41.18C43.32 38.98 43.3467 37.08 43.4 35.48C43.4267 34.8667 43.5667 34.4667 43.82 34.28C44.0867 34.08 44.5333 33.98 45.16 33.98C45.7733 33.98 46.2267 34.0733 46.52 34.26C46.8133 34.4467 46.9467 34.8333 46.92 35.42C46.8933 35.98 46.8667 37.1067 46.84 38.8H47.88ZM36.4 49.98C36.4 50.38 36.6867 50.6133 37.26 50.68C37.9267 50.76 38.7133 50.8 39.62 50.8C40.6067 50.8 41.62 50.76 42.66 50.68C43.7 50.5867 44.6133 50.4667 45.4 50.32C45.6267 50.28 45.8133 50.26 45.96 50.26C46.3333 50.26 46.6 50.3533 46.76 50.54C46.92 50.7267 47.02 51.0067 47.06 51.38C47.1 51.6867 47.12 51.94 47.12 52.14C47.12 52.4867 47.04 52.7467 46.88 52.92C46.7333 53.1067 46.4533 53.24 46.04 53.32C45.1733 53.48 44.1733 53.6 43.04 53.68C41.9067 53.7733 40.7667 53.82 39.62 53.82C37.9933 53.82 36.66 53.7467 35.62 53.6C34.66 53.4667 33.9667 53.14 33.54 52.62C33.1133 52.1 32.8733 51.3533 32.82 50.38L32.78 48.54C32.7667 48.18 32.9 47.9333 33.18 47.8C33.4733 47.6667 33.9467 47.6 34.6 47.6C35.24 47.6 35.6933 47.6533 35.96 47.76C36.2267 47.8667 36.3667 48.0933 36.38 48.44L36.4 49.98ZM53.4992 39.12C54.8459 39.2933 56.2726 39.38 57.7792 39.38C59.1259 39.38 60.4059 39.3133 61.6192 39.18C61.6726 38.8867 61.6992 38.7133 61.6992 38.66C61.6992 38.4467 61.6259 38.3 61.4792 38.22C61.3459 38.1267 61.1126 38.08 60.7792 38.08L60.2192 38.1C60.0059 38.1267 59.8326 38.14 59.6992 38.14C59.1659 38.1667 58.5926 38.18 57.9792 38.18C56.9526 38.18 55.9192 38.1533 54.8792 38.1C53.8392 38.0467 53.0992 37.9733 52.6592 37.88C52.2459 37.7867 51.9592 37.6533 51.7992 37.48C51.6392 37.2933 51.5592 37.0267 51.5592 36.68L51.5992 36.16C51.6659 35.64 51.7926 35.28 51.9792 35.08C52.1792 34.8667 52.4792 34.76 52.8792 34.76C53.0526 34.76 53.1859 34.7667 53.2792 34.78C54.6926 34.9133 56.2192 34.98 57.8592 34.98C59.1659 34.98 60.3059 34.9467 61.2792 34.88C61.7059 34.84 62.0992 34.82 62.4592 34.82C63.4459 34.82 64.1726 35.04 64.6392 35.48C65.1059 35.92 65.3392 36.74 65.3392 37.94C65.3392 38.2867 65.3192 38.6933 65.2792 39.16C65.4259 39.3467 65.5392 39.64 65.6192 40.04C65.6592 40.24 65.6792 40.42 65.6792 40.58C65.6792 40.9267 65.5792 41.1867 65.3792 41.36C65.1792 41.52 64.8192 41.6533 64.2992 41.76C62.3792 42.0933 60.2726 42.26 57.9792 42.26C56.9392 42.26 56.0126 42.2333 55.1992 42.18C55.1592 42.34 55.1392 42.4867 55.1392 42.62C55.1392 42.8467 55.2259 43.0133 55.3992 43.12C55.5726 43.2267 55.8592 43.3 56.2592 43.34C56.6726 43.38 57.3192 43.4133 58.1992 43.44C59.1192 43.4667 60.2726 43.4133 61.6592 43.28C63.0459 43.1467 64.0192 42.98 64.5792 42.78C64.8059 42.7 65.0059 42.66 65.1792 42.66C65.4592 42.66 65.6926 42.7533 65.8792 42.94C66.0792 43.1267 66.2459 43.4 66.3792 43.76C66.5126 44.12 66.5792 44.42 66.5792 44.66C66.5792 45.1933 66.2926 45.56 65.7192 45.76C64.9459 46.0267 63.8726 46.24 62.4992 46.4C61.1392 46.5467 59.6659 46.62 58.0792 46.62C57.1592 46.62 56.4726 46.6067 56.0192 46.58C54.8059 46.5267 53.8259 46.32 53.0792 45.96C52.3326 45.6 51.8526 45.1667 51.6392 44.66C51.4792 44.2333 51.3992 43.7733 51.3992 43.28C51.3992 42.8667 51.4592 42.3333 51.5792 41.68C51.4192 41.5867 51.2992 41.46 51.2192 41.3C51.1526 41.14 51.1192 40.9333 51.1192 40.68C51.1192 40.44 51.1326 40.2467 51.1592 40.1C51.2259 39.6867 51.3326 39.4067 51.4792 39.26C51.6392 39.1 51.9059 39.02 52.2792 39.02C52.5192 39.02 52.9259 39.0533 53.4992 39.12ZM53.8992 47.88C53.8992 47.4533 54.0326 47.1867 54.2992 47.08C54.5792 46.96 55.0459 46.9 55.6992 46.9C56.1392 46.9 56.4726 46.92 56.6992 46.96C56.9259 46.9867 57.0992 47.0733 57.2192 47.22C57.3526 47.3533 57.4192 47.5733 57.4192 47.88V48.76L60.2192 48.98V47.84C60.2192 47.4133 60.3459 47.1467 60.5992 47.04C60.8526 46.92 61.2992 46.86 61.9392 46.86C62.5926 46.86 63.0526 46.92 63.3192 47.04C63.5992 47.1467 63.7392 47.4133 63.7392 47.84V49.14C64.7259 49.14 65.5859 49.08 66.3192 48.96C66.5059 48.9333 66.6326 48.92 66.6992 48.92C67.1392 48.92 67.4526 49.08 67.6392 49.4C67.8259 49.7067 67.9192 50.2 67.9192 50.88C67.9192 51.28 67.8526 51.5933 67.7192 51.82C67.5859 52.0467 67.3326 52.2 66.9592 52.28C66.0259 52.4667 65.0192 52.56 63.9392 52.56C62.6459 52.56 60.9192 52.4467 58.7592 52.22C57.6259 52.1 56.5459 52.04 55.5192 52.04C54.1859 52.04 52.8192 52.1467 51.4192 52.36L50.9992 52.4C50.1192 52.4 49.6792 51.8733 49.6792 50.82C49.6792 50.2733 49.7526 49.86 49.8992 49.58C50.0459 49.2867 50.3792 49.0933 50.8992 49C51.7392 48.84 52.7392 48.74 53.8992 48.7V47.88Z" fill="#0135AC"/>
<defs>
<clipPath id="clip0_2114_38">
<rect width="41.8502" height="41.8502" fill="white" transform="translate(31.2422 46.1562) rotate(8.93741)"/>
</clipPath>
</defs>
</svg>
