<svg width="24" height="24" viewBox="0 0 24 24" fill="none" xmlns="http://www.w3.org/2000/svg">
<circle cx="12" cy="12" r="12" fill="#F9C23C"/>
<circle cx="11.9979" cy="12.0008" r="9.81818" fill="#E5A33D"/>
<path d="M8.2337 11.7073C8.2337 10.0993 8.5737 8.88328 9.2537 8.05928C9.9337 7.22728 10.8857 6.81128 12.1097 6.81128C12.7977 6.81128 13.4217 6.95928 13.9817 7.25528C14.5497 7.55128 14.9537 7.91528 15.1937 8.34728C15.2737 8.49928 15.3137 8.65128 15.3137 8.80328C15.3137 9.00328 15.2457 9.18328 15.1097 9.34328C14.9817 9.49528 14.8177 9.61928 14.6177 9.71528C14.4257 9.80328 14.2417 9.84728 14.0657 9.84728C13.8417 9.84728 13.6937 9.77928 13.6217 9.64328C13.4937 9.41928 13.2937 9.23128 13.0217 9.07928C12.7497 8.92728 12.4497 8.85128 12.1217 8.85128C11.6097 8.85128 11.2057 9.09128 10.9097 9.57128C10.6217 10.0433 10.4777 10.7553 10.4777 11.7073C10.4777 12.6673 10.6337 13.3833 10.9457 13.8553C11.2577 14.3273 11.7057 14.5633 12.2897 14.5633C12.7537 14.5633 13.1177 14.4353 13.3817 14.1793C13.6457 13.9233 13.7897 13.4513 13.8137 12.7633H12.9137C12.6577 12.7633 12.4537 12.6873 12.3017 12.5353C12.1497 12.3753 12.0737 12.1593 12.0737 11.8873C12.0737 11.6153 12.1497 11.4033 12.3017 11.2513C12.4537 11.0913 12.6577 11.0113 12.9137 11.0113H14.8337C15.5297 11.0113 15.8777 11.3753 15.8777 12.1033C15.8777 13.4393 15.5857 14.5233 15.0017 15.3553C14.4257 16.1873 13.5177 16.6033 12.2777 16.6033C10.9737 16.6033 9.9737 16.1913 9.2777 15.3673C8.5817 14.5433 8.2337 13.3233 8.2337 11.7073Z" fill="#F9C23C"/>
</svg>
