<svg width="18" height="18" viewBox="0 0 18 18" fill="none" xmlns="http://www.w3.org/2000/svg">
<path d="M3.25813 0.503906L2.37813 1.38266L3.6875 2.69141L4.56625 1.81266L3.25813 0.503906ZM14.7425 0.503906L13.4331 1.81266L14.3125 2.69141L15.6213 1.38328L14.7425 0.503906ZM9 0.893906C8.79375 0.895573 8.58542 0.908906 8.375 0.933906H8.35625C5.82125 1.22453 3.80375 3.27266 3.45312 5.79641C3.17313 7.82766 4.01062 9.66953 5.40625 10.8558C5.97705 11.3431 6.36317 12.0116 6.5 12.7495V16.4995H7.925C8.1425 16.8727 8.53938 17.1245 9 17.1245C9.46062 17.1245 9.8575 16.8727 10.075 16.4995H11.5V13.9995H11.5588V13.257C11.5588 12.3408 12.035 11.417 12.8088 10.6989C13.8438 9.66266 14.625 8.19078 14.625 6.50016C14.625 3.41266 12.0837 0.865156 9 0.893906ZM9 2.14391C11.4156 2.11016 13.375 4.08766 13.375 6.50016C13.375 7.80891 12.7688 8.96141 11.9294 9.80016L11.9494 9.82016C11.1156 10.5896 10.5763 11.6258 10.4244 12.7502H7.69062C7.55312 11.6789 7.09375 10.642 6.22563 9.89828C5.12125 8.96078 4.46313 7.54828 4.68313 5.95328C4.95625 3.98453 6.55375 2.40141 8.51125 2.18453C8.67288 2.16212 8.83563 2.14876 8.99875 2.14453L9 2.14391ZM0.25 6.50016V7.75016H2.125V6.50016H0.25ZM15.875 6.50016V7.75016H17.75V6.50016H15.875ZM3.6875 11.5589L2.37875 12.867L3.25813 13.7464L4.56562 12.4377L3.6875 11.5589ZM14.3125 11.5589L13.4338 12.4377L14.7419 13.7464L15.6213 12.867L14.3125 11.5589ZM7.75 14.0002H10.25V15.2502H7.75V14.0002Z" fill="#FF672B"/>
</svg>
