<svg width="18" height="17" viewBox="0 0 18 17" fill="none" xmlns="http://www.w3.org/2000/svg">
<path d="M8.93532 0C13.8715 0 17.8723 3.1183 17.8723 6.96596C17.8723 10.8128 13.8715 13.9311 8.93617 13.9311C8.44478 13.9302 7.95391 13.8989 7.46638 13.8374L3.71489 16.2911C3.28851 16.5166 3.13787 16.4919 3.31319 15.9396L4.07234 12.8094C1.62128 11.5668 0 9.41362 0 6.96596C0 3.11915 4 0 8.93617 0M13.9643 6.85957L15.2153 5.64766C15.2875 5.57269 15.3278 5.47262 15.3277 5.36855C15.3275 5.26447 15.287 5.16451 15.2146 5.08971C15.1423 5.01491 15.0437 4.97112 14.9397 4.96757C14.8357 4.96401 14.7343 5.00096 14.657 5.07064L13.0162 6.65872V5.34638C13.0162 5.23984 12.9738 5.13767 12.8985 5.06234C12.8232 4.987 12.721 4.94468 12.6145 4.94468C12.5079 4.94468 12.4058 4.987 12.3304 5.06234C12.2551 5.13767 12.2128 5.23984 12.2128 5.34638V7.52255C12.1986 7.58474 12.1986 7.64931 12.2128 7.71149V8.93617C12.2128 9.04271 12.2551 9.14488 12.3304 9.22022C12.4058 9.29555 12.5079 9.33787 12.6145 9.33787C12.721 9.33787 12.8232 9.29555 12.8985 9.22022C12.9738 9.14488 13.0162 9.04271 13.0162 8.93617V7.77617L13.3796 7.42468L14.5949 9.15489C14.6252 9.19809 14.6638 9.23489 14.7084 9.26318C14.7529 9.29148 14.8026 9.31072 14.8546 9.31981C14.9066 9.3289 14.9599 9.32765 15.0114 9.31615C15.0629 9.30465 15.1117 9.28311 15.1549 9.25277C15.1981 9.22242 15.2349 9.18387 15.2632 9.1393C15.2915 9.09474 15.3107 9.04504 15.3198 8.99304C15.3289 8.94103 15.3277 8.88775 15.3162 8.83623C15.3046 8.78471 15.2831 8.73596 15.2528 8.69277L13.9643 6.85957ZM11.4468 8.49702H10.2043V5.35915C10.1995 5.25592 10.1551 5.1585 10.0804 5.08713C10.0057 5.01576 9.90632 4.97593 9.80298 4.97593C9.69964 4.97593 9.60028 5.01576 9.52554 5.08713C9.45081 5.1585 9.40646 5.25592 9.4017 5.35915V8.89872C9.4017 9.12 9.58043 9.30043 9.80255 9.30043H11.4468C11.5533 9.30043 11.6555 9.2581 11.7309 9.18277C11.8062 9.10744 11.8485 9.00526 11.8485 8.89872C11.8485 8.79218 11.8062 8.69001 11.7309 8.61468C11.6555 8.53934 11.5533 8.49702 11.4468 8.49702ZM6.46213 7.56851L7.05447 6.11489L7.59745 7.56766L6.46213 7.56851ZM8.60936 7.98298L8.61106 7.96936C8.61078 7.86818 8.57215 7.77086 8.50298 7.69702L7.61277 5.31404C7.57545 5.20048 7.50436 5.10102 7.40901 5.02893C7.31366 4.95685 7.19858 4.91558 7.07915 4.91064C6.95895 4.91058 6.84155 4.94689 6.74236 5.01478C6.64318 5.08268 6.56685 5.17899 6.5234 5.29106L5.10894 8.75915C5.06865 8.85779 5.06919 8.96839 5.11045 9.06663C5.15171 9.16486 5.2303 9.24269 5.32894 9.28298C5.42757 9.32327 5.53818 9.32273 5.63641 9.28147C5.73465 9.24021 5.81248 9.16162 5.85277 9.06298L6.13532 8.37106H7.89702L8.15064 9.05191C8.16794 9.10281 8.19528 9.14971 8.23104 9.18984C8.26679 9.22998 8.31024 9.26253 8.35881 9.28556C8.40737 9.3086 8.46007 9.32166 8.51377 9.32396C8.56747 9.32626 8.62109 9.31776 8.67145 9.29896C8.72181 9.28016 8.76788 9.25144 8.80694 9.21452C8.846 9.17759 8.87725 9.13319 8.89884 9.08397C8.92043 9.03474 8.93192 8.98168 8.93263 8.92793C8.93334 8.87419 8.92326 8.82084 8.90298 8.77106L8.60936 7.98298ZM5.78128 5.3634C5.7815 5.31066 5.77129 5.25839 5.75124 5.20961C5.73118 5.16083 5.70168 5.11649 5.66442 5.07916C5.62717 5.04182 5.58289 5.01222 5.53415 4.99207C5.48541 4.97191 5.43317 4.96159 5.38043 4.9617H2.61872C2.51219 4.9617 2.41001 5.00402 2.33468 5.07936C2.25934 5.15469 2.21702 5.25687 2.21702 5.3634C2.21702 5.46994 2.25934 5.57212 2.33468 5.64745C2.41001 5.72278 2.51219 5.76511 2.61872 5.76511H3.60596V8.94468C3.60596 9.05122 3.64828 9.15339 3.72361 9.22873C3.79895 9.30406 3.90112 9.34638 4.00766 9.34638C4.1142 9.34638 4.21637 9.30406 4.29171 9.22873C4.36704 9.15339 4.40936 9.05122 4.40936 8.94468V5.76511H5.37957C5.43239 5.76533 5.48473 5.7551 5.53357 5.73499C5.5824 5.71488 5.62678 5.6853 5.66412 5.64795C5.70147 5.61061 5.73105 5.56623 5.75116 5.51739C5.77127 5.46856 5.7815 5.41622 5.78128 5.3634Z" fill="black"/>
</svg>
