<svg width="181" height="183" viewBox="0 0 181 183" fill="none" xmlns="http://www.w3.org/2000/svg">
<path d="M108 148.888L75.0373 173L72.0652 169.517L76.6584 164.695L79.3602 155.05L80.9814 156.389L81.5217 154.782V148.62L80.1708 137.636L81.5217 138.707H84.764L85.8447 141.654L89.3571 143.798L91.2484 147.816L93.4099 148.888L93.6801 150.495L96.1118 151.031V152.371L98.2733 153.71L101.245 151.299L102.056 151.835L104.488 151.031L105.839 149.156L108 148.888Z" fill="#FFC57F" fill-opacity="0.34"/>
<path d="M21 89.4112V87L59.0963 96.109L62.0683 97.9844L63.1491 97.1807L66.3913 97.4486L67.472 97.9844H68.5528L69.3634 100.396L68.0124 103.075L67.7422 104.95L66.6615 106.29L64.7702 109.237L66.1211 109.505L65.0404 110.308L65.8509 111.916L64.7702 113.255L66.3913 115.667L58.5559 115.399L54.2329 109.773L49.9099 108.433L47.7484 106.022L42.3447 106.29L41.8043 106.022L39.6429 107.093L38.0217 106.022L36.6708 106.29L34.7795 105.218V102.003L31.2671 102.807V101.735L28.295 93.6978L24.2422 93.4299L22.8913 90.4829L21 89.4112Z" fill="#FFC57F" fill-opacity="0.34"/>
<path d="M42.1768 15.856L44.1214 14.7357L47.6703 6.99112L49.8093 6.8937L49.5177 3.53283L52.1429 1L54.9139 1.73062L57.1502 1L60.6505 3.28929V5.1402L59.7268 6.99112L61.9631 7.72174L62.2061 9.32912H64.7341L66.6787 8.30624L68.9636 10.3033H70.5679L71.7833 13.3232L71.5402 15.5638L72.7556 17.0737H75.6238L76.7906 16.0996L76.4503 15.5638L76.2558 14.3948L77.1795 14.7357L79.2213 11.4236L79.9992 10.7904H81.9438H83.4995L82.5758 8.93945L83.4995 7.42949L88.7499 8.30624L89.7708 10.7904L91.8126 9.86491L92.9794 11.4236H95.4101L96.431 12.4464L97.2089 15.856L99.2507 19.2169L102.216 20.6781V22.0907L102.994 23.211V26.0848L106.689 26.8641L105.96 29.4944L107.467 33.0988L109.022 33.2449V35.7777L111.696 37.7748L115.488 38.5054L116.46 40.8434H118.113L118.94 42.5482L121.516 43.6685V45.8603L119.961 48.1983L118.94 51.9976L118.113 53.264L119.961 55.5533L118.94 59.7422L121.516 61.3496V64.7592H123.85H125.405V67.3407L127.01 68.7045L127.301 71.1399L128.711 73.137L130.218 71.7731L133.038 71.4809L135.906 69.0455L137.073 69.289L139.018 67.3407L141.254 67.7791L143.782 64.7592L146.699 65.4411V67.3407L144.463 70.1171L146.699 70.3606L148.352 71.7731V74.9392L149.324 75.8646L149.956 77.2285L150.296 82.7812L150.88 84.3399H152.241L154.088 90.0388L156.47 89.503L158.853 85.996L159.776 82.3428L162.304 81.5148L163.908 82.3428L164.152 83.6093H166.096L167.992 84.5834L170.471 87.5546V89.7952L173.388 91.9871V93.5458L176.402 94.0328L175.187 95.9325L174.701 98.9037L173.388 100.17L171.687 98.9037L169.937 102.167L171.687 105.528H172.902L173.923 107.135L173.388 108.402L173.923 109.473L173.388 110.691V112.152L175.187 112.932L173.388 117.023L175.187 118.631V120.481L177.375 123.014H179.076L180 124.622L179.271 127.203L178.639 127.69L174.701 127.495L173.388 128.47L171.687 126.326L169.937 127.203L168.187 126.521L164.784 127.203L162.012 125.255L159.339 127.203H157.832L156.762 127.934L155.498 126.521H153.116L152.533 122.673L151.269 121.212L150.248 119.8L149.616 120.481L150.248 122.089L149.178 123.453V124.037L149.616 124.622L148.692 125.839V126.765L147.136 127.203L147.428 128.811L146.261 129.298L145.143 130.856V132.366L144.463 132.951V133.925L143.004 135.24L144.463 137.286L138.629 142.839L139.212 145.128L141.4 147.125L139.212 148.781L132.212 145.907L131.531 144.543L125.211 143.959L124.117 142.863L123.023 141.767L121.565 139.38H120.544V141.182L119.086 142.839L117.87 141.767L117.19 142.839L114.224 137.773L112.182 138.504V139.185L112.134 138.138L111.307 138.504H110.432L108.196 144.202L105.376 146.297L105.036 147.174L106.64 149.122L105.036 149.512L103.626 151.509L101.536 152.239L100.806 151.509L97.5005 154.236L95.5073 152.921V151.509L92.9794 151.07V149.512L90.8403 148.537L89.6337 146.248L88.5554 144.202L85.4927 142.498L84.1314 139.185H81.1659L79.4887 138.138L79.8533 142.741L80.9229 149.512V155.649L80.4853 156.964L78.9783 155.649L76.11 165.293L71.443 170.066L74.2626 173.281L71.443 174.158L69.2067 177.665H65.7064L64.6369 176.74L60.8935 180.734L58.4628 182L56.421 179.565V177.665L52.4345 176.74V174.158L49.226 173.281L47.5443 168.751L46.2605 165.293L41.399 163.247L39.7461 160.179L38.3362 155.649L34.5929 156.964L33.1831 155.649L30.2175 156.964L27.009 157.841L23.0712 160.179H20.8835L20.4946 158.474L19.7167 159.399L17.5291 158.474H14.0774L12.5217 156.282L14.0774 153.749L8.04916 147.709L3.43074 145.225L5.22949 137.773L16.2651 121.358L8.92423 114.734L10.723 112.542L9.84791 109.717L10.723 108.986L9.84791 107.72L10.723 102.459L13.2996 101.729L14.0774 96.6144L16.2651 92.7177L14.0774 88.334L16.5081 88.9185L19.7167 86.7753L20.8835 87.5059V89.6978L23.0712 91.159L24.7241 94.0815H27.009H28.5646L31.2385 101.729V102.557C31.2385 102.751 31.3133 103.024 31.4302 103.332L34.5929 102.459V105.528L36.5375 106.989L37.8015 106.405L39.7461 107.72L41.399 106.405L42.4199 106.989L43.5866 106.857L47.5731 106.405L49.858 108.986L54.2333 110.155L58.3169 116.049H66.1926L66.7273 121.358L69.2067 117.802L64.6369 114.149V113.76L65.6092 112.542L65.0258 110.886L65.7064 110.155L64.6369 109.717L66.1926 106.989L67.651 105.528V103.385L69.4011 100.608L68.2344 98.1243L67.651 98.0756L66.9218 98.4166L66.1926 97.8808L62.9354 97.4424L61.9144 98.2217L58.7059 96.6144L59.7268 95.9812L59.5809 92.7177L58.9976 91.159L59.5809 90.8181L58.3169 88.334L58.9976 85.5089H56.9071L56.1779 84.7783L54.9625 84.5347L53.5041 82.7812L46.8438 84.7783L46.0174 84.5347V82.9761L45.434 83.4631H43.2949V81.7583L44.4617 80.4919L44.1214 79.6639L44.4617 78.9333L44.1214 76.9362L43.2949 76.5953V73.6241L44.4617 71.0425L43.2949 70.0684H41.4962L40.0378 67.7304L37.0236 68.3636L35.3221 65.2949L29.8286 63.444L27.6896 60.8138L23.7031 61.8367L22.1961 61.1547L17.8694 60.8138L16.0706 58.5732V57.1119L11.8897 54.1895L11.2577 55.3097H5.9101L5.18088 54.1895L3.43074 55.2123L2.84737 52.3385L1 49.2699L2.11814 45.2271L3.43074 43.9607L2.84737 42.743L3.96551 40.405H5.18088L6.39625 39.2847H7.80608L10.0424 37.0441V35.8264L11.8897 35.1445V34.6087L14.5149 35.1445L16.0706 33.0988L17.1888 34.6087L19.814 33.7807L22.6822 35.1445L24.5782 33.0988L25.3074 33.7807L26.5228 33.0988L28.2729 34.6087L31.0926 33.7807L34.447 30.6146L35.9055 30.1276L36.4889 29.4944H37.7042L39.1627 30.1276V31.3453H40.8642V28.9098L42.1768 23.211L41.399 19.2169H42.1768V15.856Z" fill="#FFF7D9" fill-opacity="0.77"/>
<path d="M28.2729 34.6087L31.0926 33.7807L34.447 30.6146L35.9055 30.1276L36.4889 29.4943H37.7042L39.1627 30.1276V31.3453H40.8642V28.9099L42.1768 23.211L41.399 19.2169H42.1768V15.856L44.1214 14.7357L47.6703 6.99112L49.8093 6.8937L49.5177 3.53283L52.1429 1L54.9139 1.73062L57.1502 1L60.6505 3.28929V5.1402L59.7268 6.99112L61.9631 7.72174L62.2061 9.32912H64.7341L66.6787 8.30624M28.2729 34.6087L26.5228 33.0988L25.3074 33.7807L24.5782 33.0988L22.6822 35.1445L19.814 33.7807L17.1888 34.6087L16.0706 33.0988L14.5149 35.1445L11.8897 34.6087V35.1445L10.0424 35.8264V37.0441L7.80608 39.2847H6.39625L5.18088 40.405H3.96551L2.84737 42.743L3.43074 43.9607L2.11814 45.2271L1 49.2699L2.84737 52.3385L3.43074 55.2123L5.18088 54.1895L5.9101 55.3097H11.2577L11.8897 54.1895L16.0706 57.1119V58.5732L17.8694 60.8138L22.1961 61.1547L23.7031 61.8367L27.6896 60.8138L29.8286 63.444L35.3221 65.2949L37.0236 68.3636L40.0378 67.7304M28.2729 34.6087L27.2034 35.8264L29.4883 38.5054L29.7314 40.5024L32.7455 41.6227L34.5443 44.9836L38.6765 44.8375L40.2322 43.912L43.1491 44.3504L44.5589 46.5423L44.8992 48.929L46.066 50.7799V52.3385M40.0378 67.7304L41.4962 70.0684H43.2949L44.4617 71.0425L43.2949 73.6241V76.5953L44.1214 76.9362L44.4617 78.9333L44.1214 79.6639L44.4617 80.4919L43.2949 81.7583V83.4631H45.434L46.0174 82.9761V84.5347L46.8438 84.7783L53.5041 82.7812M40.0378 67.7304L42.3713 65.2949L41.8851 64.3695L42.3713 62.9569V61.447L41.5448 60.1319H42.663L43.7325 59.4012H44.8992L44.5589 58.0374L43.7325 54.1895L44.2186 53.7511L46.066 52.3385M53.5041 82.7812L54.9625 84.5347L56.1779 84.7783L56.9071 85.5089H58.9976L58.3169 88.334L59.5809 90.8181L58.9976 91.159L59.5809 92.7177L59.7268 95.9812L58.7059 96.6144L61.9144 98.2217L62.9354 97.4424L66.1926 97.8808L66.9218 98.4166L67.651 98.0756L68.2344 98.1243M53.5041 82.7812L56.1779 81.4174H58.3169L61.4769 82.9761L63.2757 81.4174L63.9077 78.9333L61.9144 76.9362L59.5809 73.0396L61.9144 71.0425H63.9077L66.1926 73.6241L69.2067 74.5008L71.8319 73.6241L72.1722 71.627L74.214 68.9481L77.5198 68.3636V70.0684L84.2773 75.3289L87.3886 74.5008L90.9861 76.9362L95.2156 78.9333M101.438 114.734H97.1602L93.9517 111.081L91.5209 110.594L90.0138 108.499L88.3123 108.986L87.34 109.352M101.438 114.734L102.362 118.777M101.438 114.734L102.362 113.76L103.237 111.081L105.23 108.986M102.362 118.777L107.612 121.943L108.755 122.941M102.362 118.777L101.244 118.582L99.7368 119.264M110.87 128.47L109.897 123.94L108.755 122.941M110.87 128.47L112.134 138.138M110.87 128.47L98.6187 128.177M112.182 138.504L114.224 137.773L117.19 142.839L117.87 141.767L119.086 142.839L120.544 141.182V139.38H121.565L123.023 141.767L124.117 142.863M112.182 138.504L112.134 138.138M112.182 138.504V139.185L112.134 138.138M145.143 130.856V132.366L144.463 132.951V133.925L143.004 135.24L144.463 137.286L138.629 142.839L139.212 145.128L141.4 147.125L139.212 148.781L132.212 145.907L131.531 144.543L125.211 143.959L124.117 142.863M145.143 130.856L146.261 129.298L147.428 128.811L147.136 127.203L148.692 126.765V125.839L149.616 124.622L149.178 124.037V123.453L150.248 122.089L149.616 120.481L150.248 119.8L151.269 121.212L152.533 122.673L153.116 126.521H155.498L156.762 127.934L157.832 127.203H159.339L162.012 125.255L164.784 127.203L168.187 126.521L169.937 127.203L171.687 126.326L173.388 128.47L174.701 127.495L178.639 127.69L179.271 127.203L180 124.622L179.076 123.014H177.375L175.187 120.481V118.631L173.388 117.023L175.187 112.932L173.388 112.152V110.691L173.923 109.473L173.388 108.402L173.923 107.135L172.902 105.528H171.687L169.937 102.167L171.687 98.9037L173.388 100.17L174.701 98.9037L175.187 95.9325L176.402 94.0328L173.388 93.5458V91.9871L170.471 89.7952V87.5546L167.992 84.5834L166.096 83.6093H164.152L163.908 82.3428L162.304 81.5148L159.776 82.3428L158.853 85.996L156.47 89.503L154.088 90.0388M145.143 130.856L143.782 131.392H141.789L140.282 129.298L137.462 128.47L136.101 128.811M154.088 90.0388L152.241 84.3399H150.88L150.296 82.7812L149.956 77.2285L149.324 75.8646L148.352 74.9392V71.7731L146.699 70.3606L144.463 70.1171L146.699 67.3407V65.4411L143.782 64.7592L141.254 67.7791L139.018 67.3407L137.073 69.289L135.906 69.0455L133.038 71.4809L130.218 71.7731L128.711 73.137M154.088 90.0388V91.9871V93.5458L153.116 95.4454L148.692 92.7177H146.261L143.004 94.0815L141.789 96.6144L143.004 97.8808V101.729L141.789 104.213L143.782 106.405V108.012L145.143 111.081L144.463 112.542L145.143 116.049V117.802L143.004 118.631L138.629 117.023L133.962 116.049L132.212 114.734H129.246C128.695 114.409 127.564 113.672 127.447 113.321C127.331 112.971 128.112 112.104 128.517 111.714H130.316V110.886H128.128L126.475 111.714L123.607 111.081L121.565 108.986L120.836 106.405L118.94 106.015L118.259 104.895H117.092L114.953 108.012L113.446 106.405L111.307 108.012L108.536 108.499L105.23 108.986M128.711 73.137L127.301 71.1399L127.01 68.7045L125.405 67.3407V64.7592H123.85H121.516V61.3496L118.94 59.7422L119.961 55.5533L118.113 53.264M128.711 73.137L129.295 74.1111V76.9362L129.732 79.3716L128.274 79.9074H126.329L124.628 81.1738L125.065 82.148L123.607 82.7325L123.85 84.1451L123.607 85.8011H121.516L120.836 88.821H119.62L120.301 90.6233L120.836 92.0845L120.301 93.3509V95.4454V97.4911L119.62 99.2933L118.94 100.121L117.092 99.2933L113.446 100.121L108.536 100.998H105.911M118.113 53.264L118.94 51.9976L119.961 48.1983L121.516 45.8603V43.6685L118.94 42.5482L118.113 40.8434H116.46L115.488 38.5054L111.696 37.7748L109.022 35.7777V33.2449L107.467 33.0988L105.96 29.4943L106.689 26.8641L102.994 26.0848V23.211L102.216 22.0907V20.6781L99.2507 19.2169L97.2089 15.856L96.431 12.4464L95.4101 11.4236H92.9794L91.8126 9.86491L89.7708 10.7904L88.7499 8.30624L83.4995 7.42949L82.5758 8.93945L83.4995 10.7904H81.9438H79.9992L79.2213 11.4236L77.1795 14.7357L76.2558 14.3948L76.4503 15.5638L76.7906 16.0996L75.6238 17.0737H72.7556L71.5402 15.5638L71.7833 13.3232L70.5679 10.3033H68.9636L66.6787 8.30624M118.113 53.264L116.995 53.605L114.127 53.264H112.377L110.87 52.6308L109.022 51.2182L107.71 50.4389L105.182 51.2182L103.918 50.4389L103.577 48.929L101.341 47.5164L99.1048 46.5423L97.5492 47.2729H95.2643L94.924 44.8375H93.8058L90.2569 48.1496L88.2637 48.929M66.6787 8.30624L63.5674 15.5638L64.7341 16.0996L62.2061 17.8044L61.9631 21.2139L65.755 24.4774L71.7833 28.5202L76.7906 31.3453L83.4995 36.2161M68.2344 98.1243L69.4011 98.2217L71.8319 96.6144L72.1722 97.8808V98.4166L74.9919 101.729H77.0337L78.9783 105.528L78.3949 106.989H79.5616M68.2344 98.1243L69.4011 100.608L67.651 103.385V105.528L66.1926 106.989L64.6369 109.717L65.7064 110.155L65.0258 110.886L65.6092 112.542L64.6369 113.76V114.149L69.2067 117.802L66.7273 121.358M66.7273 121.358C67.1649 122.154 68.0496 123.764 68.0885 123.842M66.7273 121.358L66.1926 116.049H58.3169L54.2333 110.155L49.858 108.986L47.5731 106.405L43.5866 106.857M68.0885 123.842C68.1274 123.92 69.1094 124.102 69.5956 124.183L69.8873 125.206L72.2694 126.229L74.2626 127.106L76.11 128.811L77.374 130.369L79.1241 130.564V133.535L79.4887 138.138M68.0885 123.842L66.0467 122.527L63.227 123.014L61.3797 124.183M71.443 170.066L76.11 165.293L78.9783 155.649L80.4853 156.964L80.9229 155.649V149.512L79.8533 142.741L79.4887 138.138M71.443 170.066L74.2626 173.281L71.443 174.158L69.2067 177.665H65.7064L64.6369 176.74L60.8935 180.734L58.4628 182L56.421 179.565V177.665L52.4345 176.74V174.158L49.226 173.281L47.5443 168.751M71.443 170.066L69.8387 167.728L68.6233 163.247L66.0467 160.179H64.6369C64.4748 159.951 64.1313 159.419 64.0535 159.107C63.9757 158.795 63.8915 157.776 63.859 157.305L61.72 156.964H58.5114L57.4419 155.405M38.3362 155.649L39.7461 160.179L41.399 163.247L46.2605 165.293L47.5443 168.751M38.3362 155.649L34.5929 156.964L33.1831 155.649L30.2175 156.964L27.009 157.841L23.0712 160.179H20.8835L20.4946 158.474L19.7167 159.399L17.5291 158.474H14.0774L12.5217 156.282L14.0774 153.749L8.04916 147.709L3.43074 145.225L5.22949 137.773L16.2651 121.358L8.92423 114.734L10.723 112.542L9.84791 109.717L10.723 108.986L9.84791 107.72L10.723 102.459L13.2996 101.729L14.0774 96.6144L16.2651 92.7177L14.0774 88.334L16.5081 88.9185L19.7167 86.7753L20.8835 87.5059V89.6978L23.0712 91.159L24.7241 94.0815H27.009H28.5646L31.2385 101.729V102.557M38.3362 155.649L39.7461 156.136L40.135 155.064M79.4887 138.138L81.1659 139.185H84.1314M79.4887 138.138L61.3797 138.601M84.1314 139.185L85.4927 142.498L88.5554 144.202L89.6337 146.248M84.1314 139.185L84.4231 138.138M105.376 146.297L105.036 147.174L106.64 149.122L105.036 149.512L103.626 151.509L101.536 152.239L100.806 151.509L97.5005 154.236L95.5073 152.921V151.509L92.9794 151.07V149.512L90.8403 148.537L89.6337 146.248M105.376 146.297L108.196 144.202L110.432 138.504H111.307L112.134 138.138M105.376 146.297L104.598 146.151L103.869 143.326L101.779 141.085C101.503 141.036 100.942 140.929 100.904 140.89C100.865 140.851 100.596 139.932 100.466 139.478L96.9658 139.185L96.824 138.265M46.066 52.3385L46.4063 55.1636L48.3509 55.8942L47.8161 58.6219L48.9343 60.6677L50.5386 61.447L50.0038 58.8167L52.3859 56.1378L52.5804 54.1895L53.8444 52.7282H55.0111L56.421 51.3644H58.8031L59.6295 49.8544L61.2825 47.6138L65.755 46.5423L67.9427 47.2729L70.1304 44.9836L72.2208 44.8375L73.2903 39.7718L76.2558 38.5054L79.9992 35.8264L83.4995 36.2161M83.4995 36.2161L87.5345 41.6227L88.0206 48.929L87.5345 60.1319L89.6735 64.3695L90.9861 71.627L94.8267 77.3746L95.2156 78.9333M95.2156 78.9333L95.799 82.9761L97.695 86.6292L103.237 93.3509L105.23 96.6144L105.911 100.998M105.911 100.998L106.835 101.729V106.405L105.911 106.989L105.23 108.986M143.004 118.777L141.789 120.481V122.673L140.282 124.037L138.629 124.622L137.462 123.94L136.684 125.255L137.462 127.106L136.101 128.811M136.101 128.811V127.203L134.496 126.765L132.212 124.622L129.246 123.94L127.01 120.481L125.211 121.943L123.607 121.212L120.544 122.089L118.648 124.329L116.509 124.622L114.224 122.673L112.182 120.481L111.307 121.212L110.432 120.481L109.314 121.212L108.755 122.941M117.092 125.255L117.87 127.203V128.47H119.62L124.044 135.24L126.475 136.555L125.649 138.504L123.607 139.185V140.744L124.117 142.863M31.2385 102.557V103.385L34.5929 102.459V105.528L36.5375 106.989L37.8015 106.405L39.7461 107.72L41.399 106.405L42.4199 106.989L43.5866 106.857M31.2385 102.557C31.2385 103.219 32.1135 104.814 32.5511 105.528L31.2385 106.405V108.499L30.2175 110.886L29.0508 116.049V117.802L31.2385 120.092L33.1831 121.845M33.1831 121.845C33.1344 121.943 33.1928 121.982 33.815 121.358C34.4373 120.735 35.8893 120.254 36.5375 120.092L38.871 118.874H40.8156L42.4199 120.774M33.1831 121.845L42.4199 126.716M42.4199 120.774L42.8088 118.582L43.5866 116.049L42.8088 113.76L44.7048 112.542L43.5866 108.499V106.857M42.4199 120.774L52.5318 126.473L56.3724 125.109M33.1831 142.741V140.257L33.815 136.896L34.5929 132.951L36.5375 131.977V131.538L38.871 131.977L40.8156 131.197H42.0796M33.1831 142.741L37.1695 139.185H38.871L40.8156 140.257L43.5866 137.773M33.1831 142.741L33.815 144.348L34.5929 146.881L36.1486 149.122L38.3362 151.411V153.311L40.135 155.064M43.5866 137.773L48.8857 141.085M43.5866 137.773L44.2186 136.214M48.8857 141.085H49.6635M48.8857 141.085L48.594 138.138M49.6635 141.085L48.8857 143.179L47.33 144.884L47.8161 146.199L47.33 148.44L46.1146 150.924L43.5866 153.311H40.8156L40.135 155.064M49.6635 141.085L51.7053 141.621L54.1847 144.348L55.6917 144.884L57.8794 146.199L58.1781 146.488M47.5443 168.751L48.2537 167.241L49.6635 165.731L51.7053 165.293H53.1638L53.8444 164.027L54.7681 164.757L56.421 162.371L57.1988 160.909L56.421 158.474L56.1293 156.428L57.1988 155.064L58.5114 152.824L59.2406 150.145V147.515L58.1781 146.488M58.1781 146.488H61.3797V138.601M61.3797 129.833V134.022V138.601M61.3797 129.833V127.106V124.183M61.3797 129.833L56.3724 127.544M61.3797 124.183L56.3724 125.109M61.3797 138.601L60.2129 137.773C59.5809 137.481 58.2892 136.896 58.1781 136.896C58.067 136.896 56.7659 135.467 56.1293 134.753L54.4764 132.415M42.4199 126.716L41.7879 127.544V128.811H42.8088L43.2463 129.833L42.8088 131.197H42.0796M42.4199 126.716L44.7048 127.544L48.594 129.103L50.9275 130.369L52.9693 130.564L54.4764 132.415M54.4764 132.415H54.1847L53.5527 134.022L54.1847 136.896L52.5804 137.237L50.6358 136.458L49.6635 136.214H48.594V138.138M54.4764 132.415L55.5945 130.272L54.9139 129.249L54.8167 127.934L56.3724 127.544M44.2186 136.214L46.1146 135.143L46.698 136.896L48.594 138.138M44.2186 136.214V135.484L42.0796 132.756V131.197M56.3724 127.544L55.9348 126.716L56.3724 125.109M79.5616 106.989H80.7284L82.4299 108.986H83.7425L84.2773 109.717L85.8816 108.499L86.3677 109.717L87.34 109.352M79.5616 106.989V108.986L78.9783 110.155L77.9574 113.224V116.049L80.777 118.046M80.777 118.046L84.1314 116.439H85.8816L86.8053 117.413M80.777 118.046L85.8816 120.253M86.8053 117.413L87.34 114.734L86.8053 113.224L88.3123 112.542L87.34 109.352M86.8053 117.413L93.1252 121.212L95.6532 120.189M94.9726 124.183L95.8962 123.94L94.6323 122.527V121.358L95.6532 121.553L95.8962 120.481M94.9726 124.183L85.8816 120.253M94.9726 124.183V125.45L94.1461 125.109L94.0003 125.937C93.6924 126.44 93.0571 127.447 92.9794 127.447C92.9016 127.447 91.7154 126.797 91.132 126.473L90.1597 128.372M95.8962 120.481L95.6532 120.189M95.8962 120.481L96.8685 121.943L98.6187 122.621M95.6532 120.189L97.695 119.264H99.7368M99.7368 119.264L100.466 121.212L99.4451 122.941L98.6187 122.621M85.8816 120.253V121.943V122.527H86.8053L87.34 123.501L86.8053 124.183M86.8053 124.183L85.0551 123.842L83.8398 124.183L82.4299 123.842L80.9229 125.109L80.777 127.106V128.811M86.8053 124.183L87.34 126.473V126.96M80.777 128.811C80.6312 129.005 80.3395 129.483 80.3395 129.833C80.3395 130.272 80.8256 131.587 80.9229 131.879C81.0201 132.171 82.4299 134.899 82.4299 135.094C82.4299 135.25 83.2726 136.198 83.6939 136.653C84.0342 136.799 84.6565 137.3 84.4231 138.138M80.777 128.811H81.7979H83.6939H85.4927L87.34 127.934M84.4231 138.138L85.8816 137.237H87.34L88.1179 136.166H88.9443L89.4791 133.535V132.415V131.587L90.5 130.905L90.8403 129.249M90.8403 129.249L90.3055 129.444L87.34 127.934M90.8403 129.249C90.662 128.989 90.2764 128.45 90.1597 128.372M90.8403 129.249L97.2575 133.146M87.34 127.934V126.96M87.34 126.96L88.9443 125.937L89.4791 127.447C89.6573 127.723 90.043 128.294 90.1597 128.372M95.1184 125.45L98.6187 128.177M98.6187 128.177V122.722V122.621M98.6187 128.177L98.7159 132.853L97.2575 133.146M97.2575 133.146L96.8685 138.26L96.824 138.265M89.6337 146.248L90.1597 145.858L91.3751 144.495L93.4655 144.105L95.9449 141.962L95.6046 138.406L96.824 138.265" stroke="#FF7B00"/>
<path fill-rule="evenodd" clip-rule="evenodd" d="M62 131.686C62 126.901 65.5703 123 70 123C74.4297 123 78 126.901 78 131.686C78 133.996 77.3838 136.477 76.2939 138.62C75.2059 140.76 73.6169 142.62 71.6283 143.613C71.1187 143.868 70.5628 144 70 144C69.4372 144 68.8813 143.868 68.3717 143.613C66.3831 142.62 64.7941 140.761 63.7061 138.62C62.6162 136.477 62 133.996 62 131.686ZM70 124.465C66.3502 124.465 63.3714 127.685 63.3714 131.686C63.3714 133.734 63.9227 135.976 64.9111 137.921C65.9003 139.867 67.2992 141.46 68.9522 142.286C69.28 142.45 69.6376 142.535 69.9995 142.535C70.3615 142.535 70.7191 142.45 71.0469 142.286C72.7008 141.46 74.0997 139.867 75.0889 137.921C76.0773 135.977 76.6286 133.734 76.6286 131.686C76.6286 127.685 73.6498 124.465 70 124.465ZM70 129.349C69.7299 129.349 69.4623 129.406 69.2128 129.516C68.9632 129.626 68.7364 129.788 68.5454 129.992C68.3544 130.196 68.2028 130.439 68.0994 130.705C67.9961 130.972 67.9429 131.258 67.9429 131.546C67.9429 131.835 67.9961 132.121 68.0994 132.387C68.2028 132.654 68.3544 132.896 68.5454 133.1C68.7364 133.304 68.9632 133.466 69.2128 133.577C69.4623 133.687 69.7299 133.744 70 133.744C70.5456 133.744 71.0688 133.512 71.4546 133.1C71.8404 132.688 72.0571 132.129 72.0571 131.546C72.0571 130.964 71.8404 130.405 71.4546 129.992C71.0688 129.58 70.5456 129.349 70 129.349ZM66.5714 131.546C66.5714 130.575 66.9327 129.643 67.5756 128.956C68.2186 128.27 69.0907 127.884 70 127.884C70.9093 127.884 71.7814 128.27 72.4244 128.956C73.0673 129.643 73.4286 130.575 73.4286 131.546C73.4286 132.518 73.0673 133.449 72.4244 134.136C71.7814 134.823 70.9093 135.209 70 135.209C69.0907 135.209 68.2186 134.823 67.5756 134.136C66.9327 133.449 66.5714 132.518 66.5714 131.546Z" fill="#FF672B"/>
<path fill-rule="evenodd" clip-rule="evenodd" d="M70 124.465C66.3502 124.465 63.3714 127.685 63.3714 131.686C63.3714 133.734 63.9227 135.976 64.9111 137.921C65.9003 139.867 67.2992 141.46 68.9522 142.286C69.28 142.45 69.6376 142.535 69.9995 142.535C70.3615 142.535 70.7191 142.45 71.0469 142.286C72.7008 141.46 74.0997 139.867 75.0889 137.921C76.0773 135.977 76.6286 133.734 76.6286 131.686C76.6286 127.685 73.6498 124.465 70 124.465ZM67.5756 128.956C66.9327 129.643 66.5714 130.575 66.5714 131.546C66.5714 132.518 66.9327 133.449 67.5756 134.136C68.2186 134.823 69.0907 135.209 70 135.209C70.9093 135.209 71.7814 134.823 72.4244 134.136C73.0673 133.449 73.4286 132.518 73.4286 131.546C73.4286 130.575 73.0673 129.643 72.4244 128.956C71.7814 128.27 70.9093 127.884 70 127.884C69.0907 127.884 68.2186 128.27 67.5756 128.956Z" fill="#FF672B"/>
<ellipse cx="70" cy="149.5" rx="8" ry="2.5" fill="#787878"/>
</svg>
