<svg width="16" height="21" viewBox="0 0 16 21" fill="none" xmlns="http://www.w3.org/2000/svg">
<path fill-rule="evenodd" clip-rule="evenodd" d="M0 8.77244C0 4.21529 3.57029 0.5 8 0.5C12.4297 0.5 16 4.21529 16 8.77244C16 10.9724 15.3838 13.3352 14.2939 15.3761C13.2059 17.4142 11.6169 19.1853 9.62834 20.1313C9.11867 20.3741 8.56277 20.5 8 20.5C7.43722 20.5 6.88133 20.3741 6.37166 20.1313C4.38309 19.1853 2.79406 17.4151 1.70606 15.3761C0.616229 13.3352 0 10.9724 0 8.77244ZM8 1.89533C4.35017 1.89533 1.37143 4.96226 1.37143 8.77244C1.37143 10.7231 1.92274 12.858 2.91109 14.71C3.90034 16.564 5.2992 18.0811 6.95223 18.8672C7.28001 19.0234 7.63756 19.1044 7.99954 19.1044C8.36152 19.1044 8.71907 19.0234 9.04686 18.8672C10.7008 18.0811 12.0997 16.564 13.0889 14.71C14.0773 12.8589 14.6286 10.7231 14.6286 8.77244C14.6286 4.96226 11.6498 1.89533 8 1.89533ZM8 6.54642C7.72985 6.54642 7.46235 6.60056 7.21277 6.70574C6.96318 6.81093 6.7364 6.9651 6.54538 7.15945C6.35436 7.3538 6.20283 7.58453 6.09945 7.83846C5.99607 8.0924 5.94286 8.36456 5.94286 8.63942C5.94286 8.91427 5.99607 9.18644 6.09945 9.44037C6.20283 9.6943 6.35436 9.92503 6.54538 10.1194C6.7364 10.3137 6.96318 10.4679 7.21277 10.5731C7.46235 10.6783 7.72985 10.7324 8 10.7324C8.54559 10.7324 9.06883 10.5119 9.45462 10.1194C9.84041 9.72687 10.0571 9.19451 10.0571 8.63942C10.0571 8.08432 9.84041 7.55196 9.45462 7.15945C9.06883 6.76693 8.54559 6.54642 8 6.54642ZM4.57143 8.63942C4.57143 7.71426 4.93265 6.82699 5.57563 6.1728C6.21862 5.51861 7.09069 5.1511 8 5.1511C8.90931 5.1511 9.78138 5.51861 10.4244 6.1728C11.0673 6.82699 11.4286 7.71426 11.4286 8.63942C11.4286 9.56458 11.0673 10.4518 10.4244 11.106C9.78138 11.7602 8.90931 12.1277 8 12.1277C7.09069 12.1277 6.21862 11.7602 5.57563 11.106C4.93265 10.4518 4.57143 9.56458 4.57143 8.63942Z" fill="#FF672B"/>
<path fill-rule="evenodd" clip-rule="evenodd" d="M8 1.89533C4.35017 1.89533 1.37143 4.96226 1.37143 8.77244C1.37143 10.7231 1.92274 12.858 2.91109 14.71C3.90034 16.564 5.2992 18.0811 6.95223 18.8672C7.28001 19.0234 7.63756 19.1044 7.99954 19.1044C8.36152 19.1044 8.71907 19.0234 9.04686 18.8672C10.7008 18.0811 12.0997 16.564 13.0889 14.71C14.0773 12.8589 14.6286 10.7231 14.6286 8.77244C14.6286 4.96226 11.6498 1.89533 8 1.89533ZM5.57563 6.1728C4.93265 6.82699 4.57143 7.71426 4.57143 8.63942C4.57143 9.56458 4.93265 10.4518 5.57563 11.106C6.21862 11.7602 7.09069 12.1277 8 12.1277C8.90931 12.1277 9.78138 11.7602 10.4244 11.106C11.0673 10.4518 11.4286 9.56458 11.4286 8.63942C11.4286 7.71426 11.0673 6.82699 10.4244 6.1728C9.78138 5.51861 8.90931 5.1511 8 5.1511C7.09069 5.1511 6.21862 5.51861 5.57563 6.1728Z" fill="#FF672B"/>
</svg>
