<svg width="133" height="133" viewBox="0 0 133 133" fill="none" xmlns="http://www.w3.org/2000/svg">
<circle cx="66.5" cy="66.5" r="66.5" fill="#FFBC2B"/>
<path d="M27.3739 42C21.4606 47.7578 15.4397 60.4786 38.6631 65.2991C67.6923 71.3248 80.5939 68.5128 80.9971 77.7521C81.3196 85.1436 54.3051 92.3305 41 93" stroke="#FFEFB3" stroke-linecap="round"/>
<path d="M65.2915 42.1914C59.3781 47.9492 56.1795 53.371 79.4029 58.1914C108.502 64.2314 111.598 68.2606 112.001 77.4999C112.324 84.8913 98.3064 93.8304 85.0014 94.4999" stroke="#FFEFB3" stroke-linecap="round"/>
<path d="M104.646 49.8231C104.646 54.1437 101.144 65.5556 96.8231 65.5556C92.5025 65.5556 89 54.1437 89 49.8231C89 45.5025 92.5025 42 96.8231 42C101.144 42 104.646 45.5025 104.646 49.8231Z" fill="#FF4000"/>
<circle cx="96.9356" cy="49.7081" r="4.71689" fill="#FFEFB3"/>
<ellipse cx="97" cy="69.9996" rx="8" ry="2.22222" fill="#7F6919"/>
<rect x="47.2305" y="65.7354" width="2.75207" height="8.2562" fill="#3E2624"/>
<path d="M48.6077 48C44.2758 54.5234 38.211 67.5397 48.6077 67.4174C59.0044 67.295 52.9397 54.4215 48.6077 48Z" fill="#004E0C"/>
<rect x="55.9922" y="78.6865" width="2.10452" height="6.31356" fill="#3E2624"/>
<path d="M57.0422 65.124C53.7295 70.1125 49.0918 80.0661 57.0422 79.9726C64.9926 79.8791 60.3548 70.0346 57.0422 65.124Z" fill="#3EC152"/>
<rect x="37.3359" y="75.6289" width="2.10452" height="6.31356" fill="#3E2624"/>
<path d="M38.3898 62.0664C35.0772 67.0549 30.4394 77.0085 38.3898 76.915C46.3402 76.8214 41.7025 66.977 38.3898 62.0664Z" fill="#32A643"/>
</svg>
