<svg width="11" height="12" viewBox="0 0 11 12" fill="none" xmlns="http://www.w3.org/2000/svg">
<path d="M7.3125 10.3856L6.26031 9.33344L5.6875 9.90625L7.3125 11.5312L10.5625 8.28125L9.98969 7.70844L7.3125 10.3856ZM2.03125 6.25H4.875V7.0625H2.03125V6.25ZM2.03125 4.21875H6.90625V5.03125H2.03125V4.21875ZM2.03125 2.1875H6.90625V3H2.03125V2.1875Z" fill="#3C3A3A"/>
<path d="M4.875 11.375H0.8125C0.364406 11.375 0 11.0106 0 10.5625V0.8125C0 0.364406 0.364406 0 0.8125 0H8.125C8.57309 0 8.9375 0.364406 8.9375 0.8125V6.90625H8.125V0.8125H0.8125V10.5625H4.875V11.375Z" fill="#3C3A3A"/>
</svg>
