<svg width="28" height="28" viewBox="0 0 28 28" fill="none" xmlns="http://www.w3.org/2000/svg">
<path d="M3.5 11.6666V22.1666C3.5 22.7855 3.74583 23.379 4.18342 23.8165C4.621 24.2541 5.21449 24.5 5.83333 24.5H22.1667C22.7855 24.5 23.379 24.2541 23.8166 23.8165C24.2542 23.379 24.5 22.7855 24.5 22.1666V11.6666" stroke="#FF4800" stroke-width="1.5"/>
<path d="M17.3047 24.5V17.5C17.3047 16.8811 17.0589 16.2876 16.6213 15.85C16.1837 15.4125 15.5902 15.1666 14.9714 15.1666H12.638C12.0192 15.1666 11.4257 15.4125 10.9881 15.85C10.5505 16.2876 10.3047 16.8811 10.3047 17.5V24.5" stroke="#FF4800" stroke-width="1.5" stroke-miterlimit="16"/>
<path d="M25.455 10.9247L23.4787 4.0075C23.4368 3.86126 23.3485 3.73262 23.227 3.64105C23.1056 3.54948 22.9576 3.49997 22.8055 3.5H18.084L18.6382 10.1547C18.6467 10.2616 18.6806 10.365 18.737 10.4563C18.7934 10.5476 18.8707 10.6241 18.9625 10.6797C19.4175 10.9515 20.3065 11.4532 21.0007 11.6667C22.186 12.0318 23.9173 11.9 24.9043 11.7787C25.0003 11.7663 25.0924 11.7331 25.1742 11.6814C25.256 11.6297 25.3255 11.5608 25.3779 11.4795C25.4304 11.3982 25.4644 11.3064 25.4777 11.2106C25.491 11.1148 25.4833 11.0172 25.455 10.9247Z" fill="#FF672B" stroke="#FF4800" stroke-width="1.5"/>
<path d="M16.333 11.6667C16.9956 11.4625 17.8356 10.997 18.3046 10.7193C18.4138 10.6541 18.5023 10.5593 18.5601 10.4461C18.6179 10.3328 18.6426 10.2055 18.6313 10.0788L18.083 3.5H9.91631L9.36798 10.0788C9.35652 10.2057 9.38109 10.3332 9.43888 10.4467C9.49667 10.5602 9.58532 10.6551 9.69465 10.7205C10.1636 10.997 11.0036 11.4625 11.6663 11.6667C13.4081 12.2033 14.5911 12.2033 16.333 11.6667Z" fill="#FF672B" stroke="#FF4800" stroke-width="1.5"/>
<path d="M4.52231 4.0075L2.54597 10.9258C2.51808 11.0182 2.51062 11.1156 2.52412 11.2111C2.53762 11.3066 2.57175 11.3981 2.62414 11.4791C2.67654 11.5602 2.74594 11.6288 2.82753 11.6804C2.90912 11.7319 3.00095 11.765 3.09664 11.7775C4.08247 11.9 5.81497 12.0307 7.00031 11.6667C7.69447 11.4532 8.58464 10.9515 9.03847 10.6808C9.13044 10.6252 9.20782 10.5484 9.26423 10.4569C9.32063 10.3654 9.35442 10.2618 9.3628 10.1547L9.91697 3.5H5.19547C5.04336 3.49997 4.89538 3.54948 4.77392 3.64105C4.65246 3.73262 4.56414 3.86126 4.52231 4.0075Z" fill="#FF672B" stroke="#FF4800" stroke-width="1.5"/>
</svg>
