<svg width="22" height="22" viewBox="0 0 22 22" fill="none" xmlns="http://www.w3.org/2000/svg">
<path d="M19.25 5.22404H2.0625V4.52504L17.1875 3.2948V4.52504H19.25V2.42804C19.25 0.890248 18.0249 -0.189005 16.5289 0.0276841L2.7225 2.03241C1.22512 2.2505 0 3.68624 0 5.22404V19.204C0 19.9456 0.289731 20.6567 0.805456 21.1811C1.32118 21.7054 2.02065 22 2.75 22H19.25C19.9793 22 20.6788 21.7054 21.1945 21.1811C21.7103 20.6567 22 19.9456 22 19.204V8.02003C22 7.27849 21.7103 6.56732 21.1945 6.04297C20.6788 5.51862 19.9793 5.22404 19.25 5.22404ZM17.1875 15.0184C16.9166 15.0183 16.6483 14.964 16.398 14.8585C16.1477 14.753 15.9203 14.5984 15.7288 14.4035C15.5373 14.2087 15.3854 13.9774 15.2818 13.7228C15.1782 13.4683 15.1249 13.1955 15.125 12.92C15.1251 12.6445 15.1785 12.3718 15.2823 12.1173C15.3861 11.8628 15.5381 11.6316 15.7298 11.4369C15.9214 11.2422 16.1489 11.0878 16.3993 10.9824C16.6496 10.8771 16.9179 10.8229 17.1889 10.823C17.7361 10.8232 18.2608 11.0444 18.6476 11.4379C19.0344 11.8314 19.2516 12.3651 19.2514 12.9214C19.2512 13.4778 19.0336 14.0112 18.6466 14.4045C18.2595 14.7978 17.7347 15.0186 17.1875 15.0184Z" fill="#FF672B"/>
</svg>
